<?xml version="1.0" encoding="UTF-8" standalone="no"?>
<svg
   xmlns:dc="http://purl.org/dc/elements/1.1/"
   xmlns:cc="http://creativecommons.org/ns#"
   xmlns:rdf="http://www.w3.org/1999/02/22-rdf-syntax-ns#"
   xmlns:svg="http://www.w3.org/2000/svg"
   xmlns="http://www.w3.org/2000/svg"
   viewBox="0 0 377.95999 145.50667"
   height="145.50667"
   width="377.95999"
   xml:space="preserve"
   id="svg2"
   version="1.1"><metadata
     id="metadata8"><rdf:RDF><cc:Work
         rdf:about=""><dc:format>image/svg+xml</dc:format><dc:type
           rdf:resource="http://purl.org/dc/dcmitype/StillImage" /></cc:Work></rdf:RDF></metadata><defs
     id="defs6" /><g
     transform="matrix(1.3333333,0,0,-1.3333333,0,145.50667)"
     id="g10"><g
       transform="scale(0.1)"
       id="g12"><path
         id="path14"
         style="fill:#000;fill-opacity:1;fill-rule:nonzero;stroke:none"
         d="M 479.23,846.129 H 267.695 V 967.004 H 86.3828 V 846.129 H 0 V 725.258 H 86.3828 V 423.063 c 0,-75.547 30.2152,-128.426 90.6522,-158.653 25.168,-12.09 55.387,-19.637 90.66,-22.664 H 479.23 V 362.625 H 328.129 c -37.274,0 -57.41,20.137 -60.434,60.438 V 725.258 H 479.23 v 120.871 0" /><path
         id="path16"
         style="fill:#000;fill-opacity:1;fill-rule:nonzero;stroke:none"
         d="m 1527.94,423.063 c -3.02,-40.301 -23.18,-60.438 -60.44,-60.438 h -60.44 v 302.191 c 3.03,40.278 23.15,60.442 60.44,60.442 40.28,-3.024 60.44,-23.192 60.44,-60.442 z m 158.65,332.414 c -30.22,60.433 -83.1,90.652 -158.65,90.652 h -30.23 c -60.43,-4.035 -90.65,-34.258 -90.65,-90.652 l -60.43,90.652 H 1225.75 V 0 h 181.31 v 241.746 h 120.88 c 75.55,0 128.43,30.223 158.65,90.664 12.09,25.164 19.64,55.379 22.66,90.653 v 241.753 c -3.02,35.25 -10.57,65.465 -22.66,90.661" /><path
         id="path18"
         style="fill:#000;fill-opacity:1;fill-rule:nonzero;stroke:none"
         d="m 2653.33,423.063 c -3.02,-40.301 -23.18,-60.438 -60.44,-60.438 -40.3,3.027 -60.43,23.164 -60.43,60.438 v 241.753 c 3.02,40.278 23.16,60.442 60.43,60.442 40.28,-3.024 60.44,-23.192 60.44,-60.442 z m 158.65,332.414 c -30.22,60.433 -83.1,90.652 -158.65,90.652 h -120.87 c -35.28,-3.02 -65.49,-10.574 -90.66,-22.664 -60.44,-30.215 -90.66,-83.102 -90.66,-158.649 V 423.063 c 3.02,-35.274 10.58,-65.489 22.67,-90.653 30.21,-60.441 83.1,-90.664 158.65,-90.664 h 120.87 c 35.25,2.012 65.47,9.57 90.66,22.664 60.44,30.227 90.66,83.106 90.66,158.653 v 241.753 c -3.03,35.25 -10.58,65.465 -22.67,90.661" /><path
         id="path20"
         style="fill:#000;fill-opacity:1;fill-rule:nonzero;stroke:none"
         d="m 903.402,421.246 c -3.086,-41.101 -23.652,-61.641 -61.648,-61.641 -41.106,3.079 -61.649,23.625 -61.649,61.641 v 30.832 c 3.083,41.074 23.625,61.641 61.649,61.641 h 61.648 v -92.473 z m 185.588,-179.5 v 423.07 c -3.02,35.25 -10.57,65.465 -22.66,90.661 -30.22,60.433 -83.107,90.652 -158.654,90.652 H 635.707 V 725.258 h 211.535 c 37.25,0 57.414,-20.164 60.434,-60.442 V 604.379 H 786.801 c -75.547,0 -128.434,-30.223 -158.649,-90.66 -12.089,-25.188 -19.64,-55.41 -22.664,-90.656 3.024,-35.274 10.575,-65.489 22.664,-90.653 30.215,-60.441 83.102,-90.664 158.649,-90.664 h 30.219 c 56.402,0 86.617,30.223 90.656,90.664 l 60.437,-90.664 h 120.877 v 0" /><path
         id="path22"
         style="fill:#000;fill-opacity:1;fill-rule:nonzero;stroke:none"
         d="M 2142.34,846.129 H 1835.87 V 725.258 h 125.16 V 362.625 H 1827.04 V 241.746 h 449.29 v 120.879 h -133.99 v 483.504 z m -166.2,245.201 V 940.234 h 151.09 v 151.096 h -151.09 v 0" /></g></g></svg>
