<?xml version="1.0" standalone="no"?>
<!DOCTYPE svg PUBLIC "-//W3C//DTD SVG 1.1//EN" "http://www.w3.org/Graphics/SVG/1.1/DTD/svg11.dtd" >
<svg xmlns="http://www.w3.org/2000/svg" xmlns:xlink="http://www.w3.org/1999/xlink" version="1.1">
<metadata></metadata>
<defs>
<font id="audimat_monolight" horiz-adv-x="400" >
<font-face units-per-em="760" ascent="608" descent="-152" />
<missing-glyph horiz-adv-x="500" />
<glyph horiz-adv-x="0" />
<glyph unicode="&#xd;" />
<glyph unicode=" " />
<glyph unicode="!" d="M170 60h60v-60h-60v60zM220 480v-320h-40v320h40z" />
<glyph unicode="&#x22;" d="M140 400l-6 -100h-28l-6 100v80h40v-80zM300 400l-6 -100h-28l-6 100v80h40v-80z" />
<glyph unicode="#" d="M320 280h-40l-14 -80h54v-26h-58l-16 -94h-26l16 94h-94l-16 -94h-26l16 94h-36v26h40l14 80h-54v26h58l16 94h26l-16 -94h94l16 94h26l-16 -94h36v-26zM240 200l14 80h-94l-14 -80h94z" />
<glyph unicode="$" d="M320 340h-40v40q0 56 -60 60h-40q-56 0 -60 -60v-60q4 -60 60 -60h40q93 0 100 -100v-60q-7 -100 -100 -100h-7v-40h-26v40h-7q-93 0 -100 100v40h40v-40q0 -56 60 -60h40q56 0 60 60v60q0 56 -60 60h-40q-100 7 -100 100v60q7 100 100 100h7v40h26v-40h7q93 0 100 -100 v-40z" />
<glyph unicode="%" d="M332 391l19 -19l-283 -283l-19 19zM150 480q56 0 60 -60v-40q0 -56 -60 -60h-10q-56 0 -60 60v40q0 56 60 60h10zM180 380v40q-2 30 -30 30h-10q-30 -2 -30 -30v-40q2 -30 30 -30h10q30 2 30 30zM260 160q56 0 60 -60v-40q0 -56 -60 -60h-10q-56 0 -60 60v40q0 56 60 60 h10zM290 60v40q-2 30 -30 30h-10q-30 -2 -30 -30v-40q2 -30 30 -30h10q30 2 30 30z" />
<glyph unicode="&#x26;" d="M320 340h-40v100h-160l200 -400v-40h-40v40l-100 200q-56 0 -60 -60v-80q4 -60 60 -60h60v-40h-60q-93 0 -100 100v80q0 82 81 98l-81 162v40h240v-140z" />
<glyph unicode="'" d="M220 400l-6 -100h-28l-6 100v80h40v-80z" />
<glyph unicode="(" d="M220 479h60v-40h-60q-56 0 -60 -60v-360q4 -60 60 -60h60v-40h-60q-93 0 -100 100v360q7 100 100 100z" />
<glyph unicode=")" d="M180 479q93 0 100 -100v-360q-7 -100 -100 -100h-60v40h60q56 0 60 60v360q-4 60 -60 60h-60v40h60z" />
<glyph unicode="*" d="M299 398l-76 -24l47 -64l-23 -17l-47 64l-46 -64l-23 17l47 64l-76 24l9 27l75 -24v79h29v-79l75 24z" />
<glyph unicode="+" d="M320 220v-40h-100v-100h-40v100h-100v40h100v100h40v-100h100z" />
<glyph unicode="," d="M160 60h60l-40 -140h-20v140z" />
<glyph unicode="-" d="M80 220h240v-40h-240v40z" />
<glyph unicode="." d="M220 60v-60h-60v60h60z" />
<glyph unicode="/" d="M280 440v40h40v-40l-200 -440v-40h-40v40z" />
<glyph unicode="0" d="M200 480q50 0 85 -35t35 -85v-240q0 -50 -35 -85t-85 -35t-85 35t-35 85v240q0 50 35 85t85 35zM280 120v240q0 33 -23.5 56.5t-56.5 23.5t-56.5 -23.5t-23.5 -56.5v-240q0 -33 23.5 -56.5t56.5 -23.5t56.5 23.5t23.5 56.5z" />
<glyph unicode="1" d="M100 440l80 40h40v-440h80v-40h-200v40h80v400l-80 -40v40z" />
<glyph unicode="2" d="M80 0v140q7 100 100 100h40q56 0 60 60v80q-4 60 -60 60h-40q-60 -4 -60 -60v-40h-40v40q7 100 100 100h40q93 0 100 -100v-80q0 -93 -100 -100h-40q-60 -4 -60 -60v-100h200v-40h-240z" />
<glyph unicode="3" d="M320 320q0 -47 -36 -80q36 -33 36 -80v-60q-7 -100 -100 -100h-40q-93 0 -100 100v40h40v-40q0 -56 60 -60h40q56 0 60 60v60q-4 60 -60 60h-60v40h60q60 4 60 60v60q-4 60 -60 60h-40q-60 -4 -60 -60v-40h-40v40q7 100 100 100h40q93 0 100 -100v-60z" />
<glyph unicode="4" d="M320 160v-40h-40v-120h-40v120h-180v40l180 320h40v-320h40zM100 160h140v260z" />
<glyph unicode="5" d="M80 240v240h240v-40h-200v-160h100q93 0 100 -100v-80q-7 -100 -100 -100h-40q-93 0 -100 100v40h40v-40q0 -56 60 -60h40q56 0 60 60v80q0 56 -60 60h-140z" />
<glyph unicode="6" d="M180 480h140v-40h-140q-56 0 -60 -60v-100h100q93 0 100 -100v-80q-7 -100 -100 -100h-40q-93 0 -100 100v280q0 93 100 100zM220 240h-100v-140q0 -56 60 -60h40q56 0 60 60v80q0 56 -60 60z" />
<glyph unicode="7" d="M80 480h240v-40l-120 -400v-40h-40v40l120 400h-200v40z" />
<glyph unicode="8" d="M320 320q0 -47 -36 -80q36 -33 36 -80v-60q-7 -100 -100 -100h-40q-93 0 -100 100v60q0 47 36 80q-36 33 -36 80v60q7 100 100 100h40q93 0 100 -100v-60zM280 100v60q-4 60 -60 60h-40q-56 0 -60 -60v-60q4 -60 60 -60h40q56 0 60 60zM280 320v60q-4 60 -60 60h-40 q-56 0 -60 -60v-60q0 -56 60 -60h40q60 4 60 60z" />
<glyph unicode="9" d="M220 0h-140v40h140q56 0 60 60v100h-100q-93 0 -100 100v80q7 100 100 100h40q93 0 100 -100v-280q0 -93 -100 -100zM180 240h100v140q0 56 -60 60h-40q-56 0 -60 -60v-80q0 -56 60 -60z" />
<glyph unicode=":" d="M220 60v-60h-60v60h60zM220 360v-60h-60v60h60z" />
<glyph unicode=";" d="M220 360v-60h-60v60h60zM160 60h60l-40 -140h-20v140z" />
<glyph unicode="&#x3c;" d="M126 200l194 -160v-40l-240 200l240 200v-40z" />
<glyph unicode="=" d="M80 280h240v-40h-240v40zM80 120v40h240v-40h-240z" />
<glyph unicode="&#x3e;" d="M274 200l-194 160v40l240 -200l-240 -200v40z" />
<glyph unicode="?" d="M220 480q93 0 100 -100v-80q0 -93 -100 -100v-40h-40v80h40q56 0 60 60v80q-4 60 -60 60h-40q-60 -4 -60 -60v-40h-40v40q7 100 100 100h40zM170 0v60h60v-60h-60z" />
<glyph unicode="@" d="M270 400q80 -6 80 -80v-240q-6 -80 -80 -80h-60l-20 40q-3 -40 -40 -40h-20q-80 6 -80 80v120q6 80 80 80h100v-240h40q40 3 40 40v240q-3 40 -40 40h-220v40h220zM190 60v180h-60q-37 0 -40 -40v-120q0 -37 40 -40h40q19 0 20 20z" />
<glyph unicode="A" d="M144 160l-24 -120v-40h-40v40l100 440h40l100 -440v-40h-40v40l-24 120h-112zM248 200l-48 240l-48 -240h96z" />
<glyph unicode="B" d="M265 251q55 -28 55 -91v-60q-7 -100 -100 -100h-140v480h120q93 0 100 -100v-60q0 -43 -35 -69zM120 440v-180h80q60 4 60 60v60q0 56 -60 60h-80zM280 100v60q0 56 -60 60h-100v-180h100q60 4 60 60z" />
<glyph unicode="C" d="M320 340h-40v40q0 56 -60 60h-40q-56 0 -60 -60v-280q4 -60 60 -60h40q60 4 60 60v40h40v-40q-7 -100 -100 -100h-40q-93 0 -100 100v280q7 100 100 100h40q93 0 100 -100v-40z" />
<glyph unicode="D" d="M220 480q93 0 100 -100v-280q-7 -100 -100 -100h-140v480h140zM280 100v280q0 56 -60 60h-100v-400h100q60 4 60 60z" />
<glyph unicode="E" d="M300 440h-160v-180h140v-40h-140v-180h160v-40h-200v480h200v-40z" />
<glyph unicode="F" d="M300 440h-160v-180h140v-40h-140v-220h-40v480h200v-40z" />
<glyph unicode="G" d="M320 240v-140q-7 -100 -100 -100h-40q-93 0 -100 100v280q7 100 100 100h40q93 0 100 -100v-40h-40v40q0 56 -60 60h-40q-56 0 -60 -60v-280q4 -60 60 -60h40q60 4 60 60v100h-80v40h120z" />
<glyph unicode="H" d="M280 480h40v-480h-40v220h-160v-220h-40v480h40v-220h160v220z" />
<glyph unicode="I" d="M300 440h-80v-400h80v-40h-200v40h80v400h-80v40h200v-40z" />
<glyph unicode="J" d="M320 480v-380q-7 -100 -100 -100h-40q-93 0 -100 100v40h40v-40q0 -56 60 -60h40q56 0 60 60v340h-180v40h220z" />
<glyph unicode="K" d="M320 160v-160h-40v160q0 56 -60 60h-100v-220h-40v480h40v-220h70l90 180v40h40v-40l-90 -181q32 -4 54 -20q36 -27 36 -79z" />
<glyph unicode="L" d="M160 40h160v-40h-200v480h40v-440z" />
<glyph unicode="M" d="M260 480h60v-480h-40v440l-80 -280l-80 280v-440h-40v480h60l60 -220z" />
<glyph unicode="N" d="M280 480h40v-480h-40v40l-160 320v-360h-40v480h40v-40l160 -320v360z" />
<glyph unicode="O" d="M220 480q93 0 100 -100v-280q-7 -100 -100 -100h-40q-93 0 -100 100v280q7 100 100 100h40zM280 100v280q0 56 -60 60h-40q-56 0 -60 -60v-280q4 -60 60 -60h40q60 4 60 60z" />
<glyph unicode="P" d="M220 480q93 0 100 -100v-100q-7 -100 -100 -100h-100v-180h-40v480h140zM280 280v100q0 56 -60 60h-100v-220h100q60 4 60 60z" />
<glyph unicode="Q" d="M220 480q93 0 100 -100v-280q0 -54 -37 -80q-23 -16 -55 -19l32 -81h-40l-32 80h-8q-93 0 -100 100v280q7 100 100 100h40zM280 100v280q0 56 -60 60h-40q-56 0 -60 -60v-280q4 -60 60 -60h40q60 4 60 60z" />
<glyph unicode="R" d="M320 320q0 -52 -36 -79q-22 -16 -54 -20l90 -181v-40h-40v40l-90 180h-70v-220h-40v480h140q93 0 100 -100v-60zM280 320v60q0 56 -60 60h-100v-180h100q60 4 60 60z" />
<glyph unicode="S" d="M180 220q-100 7 -100 100v60q7 100 100 100h40q93 0 100 -100v-40h-40v40q0 56 -60 60h-40q-56 0 -60 -60v-60q4 -60 60 -60h40q93 0 100 -100v-60q-7 -100 -100 -100h-40q-93 0 -100 100v40h40v-40q0 -56 60 -60h40q56 0 60 60v60q0 56 -60 60h-40z" />
<glyph unicode="T" d="M340 480v-40h-120v-440h-40v440h-120v40h280z" />
<glyph unicode="U" d="M280 480h40v-380q-7 -100 -100 -100h-40q-93 0 -100 100v380h40v-380q4 -60 60 -60h40q60 4 60 60v380z" />
<glyph unicode="V" d="M320 440l-100 -440h-40l-100 440v40h40v-40l80 -400l80 400v40h40v-40z" />
<glyph unicode="W" d="M160 40v-40h-40v40l-40 440h40v-40l34 -338l46 138l46 -138l34 338v40h40v-40l-40 -440h-40v40l-40 120z" />
<glyph unicode="X" d="M320 480v-40l-89 -200l89 -200v-40h-40v40l-80 180l-80 -180v-40h-40v40l89 200l-89 200v40h40v-40l80 -180l80 180v40h40z" />
<glyph unicode="Y" d="M280 480h40v-40l-100 -280v-160h-40v160l-100 280v40h40v-40l80 -240l80 240v40z" />
<glyph unicode="Z" d="M80 440v40h240v-40l-200 -400h200v-40h-240v40l200 400h-200z" />
<glyph unicode="[" d="M280 480v-40h-120v-480h120v-40h-160v560h160z" />
<glyph unicode="\" d="M120 440l200 -440v-40h-40v40l-200 440v40h40v-40z" />
<glyph unicode="]" d="M120 480h160v-560h-160v40h120v480h-120v40z" />
<glyph unicode="^" d="M200 280l100 -160h-40l-60 100l-60 -100h-40z" />
<glyph unicode="_" d="M40 40h320v-40h-320v40z" />
<glyph unicode="`" d="M140 560h40l40 -120h-40z" />
<glyph unicode="a" d="M220 400q100 -7 100 -100v-300h-20l-20 60q0 -56 -60 -60h-40q-93 0 -100 100v20q0 93 100 100h100v80q-4 60 -60 60h-120v40h120zM280 100v80h-100q-56 0 -60 -60v-20q0 -56 60 -60h40q56 0 60 60z" />
<glyph unicode="b" d="M220 400q93 0 100 -100v-200q0 -93 -100 -100h-140v560h40v-220q0 56 60 60h40zM280 100v200q0 56 -60 60h-40q-56 0 -60 -60v-260h100q56 0 60 60z" />
<glyph unicode="c" d="M320 260h-40v40q0 56 -60 60h-40q-56 0 -60 -60v-200q4 -60 60 -60h40q60 4 60 60v40h40v-40q-7 -100 -100 -100h-40q-93 0 -100 100v200q7 100 100 100h40q93 0 100 -100v-40z" />
<glyph unicode="d" d="M280 560h40v-560h-20l-20 60q0 -56 -60 -60h-40q-93 0 -100 100v200q0 93 100 100h100v160zM280 100v260h-100q-56 0 -60 -60v-200q0 -56 60 -60h40q56 0 60 60z" />
<glyph unicode="e" d="M320 180h-200v-80q4 -60 60 -60h40q60 4 60 60v20h40v-20q-7 -100 -100 -100h-40q-93 0 -100 100v200q7 100 100 100h40q93 0 100 -100v-120zM120 300v-80h160v80q0 56 -60 60h-40q-56 0 -60 -60z" />
<glyph unicode="f" d="M300 340h-100v-300h120v-40h-240v40h80v300h-80v40h80v80q7 100 100 100h60v-40h-60q-56 0 -60 -60v-80h100v-40z" />
<glyph unicode="g" d="M180 400h140v-460q-7 -100 -100 -100h-120v40h120q56 0 60 60v120q0 -56 -60 -60h-40q-93 0 -100 100v200q0 93 100 100zM280 100v260h-100q-56 0 -60 -60v-200q0 -56 60 -60h40q56 0 60 60z" />
<glyph unicode="h" d="M220 400q93 0 100 -100v-300h-40v300q0 56 -60 60h-40q-56 0 -60 -60v-300h-40v560h40v-220q0 56 60 60h40z" />
<glyph unicode="i" d="M220 40h100v-40h-240v40h100v320h-80v40h120v-360zM230 560v-60h-60v60h60z" />
<glyph unicode="j" d="M80 400h240v-40h-100v-420q-7 -100 -100 -100h-40v40h40q56 0 60 60v420h-100v40zM230 560v-60h-60v60h60z" />
<glyph unicode="k" d="M231 239q89 -11 89 -99v-140h-40v140q0 56 -60 60h-100v-200h-40v560h40v-320h71l89 160h40z" />
<glyph unicode="l" d="M220 40h100v-40h-240v40h100v480h-100v40h140v-520z" />
<glyph unicode="m" d="M260 400q80 -6 80 -80v-320h-40v320q0 37 -40 40q-40 -3 -40 -40v-320h-40v320q0 37 -40 40q-40 -3 -40 -40v-320h-40v400h20l20 -40q3 40 40 40q45 0 66 -32q17 32 54 32z" />
<glyph unicode="n" d="M220 400q93 0 100 -100v-300h-40v300q0 56 -60 60h-40q-56 0 -60 -60v-300h-40v400h20l20 -60q0 56 60 60h40z" />
<glyph unicode="o" d="M220 400q93 0 100 -100v-200q-7 -100 -100 -100h-40q-93 0 -100 100v200q7 100 100 100h40zM280 100v200q0 56 -60 60h-40q-56 0 -60 -60v-200q4 -60 60 -60h40q60 4 60 60z" />
<glyph unicode="p" d="M120 -160h-40v560h20l20 -60q0 56 60 60h40q93 0 100 -100v-200q0 -93 -100 -100h-100v-160zM120 300v-260h100q56 0 60 60v200q0 56 -60 60h-40q-56 0 -60 -60z" />
<glyph unicode="q" d="M180 0q-93 0 -100 100v200q0 93 100 100h140v-560h-40v220q0 -56 -60 -60h-40zM120 300v-200q0 -56 60 -60h40q56 0 60 60v260h-100q-56 0 -60 -60z" />
<glyph unicode="r" d="M220 400q93 0 100 -100v-100h-40v100q0 56 -60 60h-40q-56 0 -60 -60v-300h-40v400h20l20 -60q0 56 60 60h40z" />
<glyph unicode="s" d="M180 400h120v-40h-120q-60 -4 -60 -60v-20q4 -60 60 -60h40q100 -7 100 -100v-20q-7 -100 -100 -100h-140v40h140q60 4 60 60v20q-4 60 -60 60h-40q-100 7 -100 100v20q7 100 100 100z" />
<glyph unicode="t" d="M320 340h-140v-240q4 -60 60 -60h80v-40h-80q-93 0 -100 100v240h-60v40h60v100h40v-100h140v-40z" />
<glyph unicode="u" d="M180 0q-93 0 -100 100v300h40v-300q0 -56 60 -60h40q56 0 60 60v300h40v-400h-20l-20 60q0 -56 -60 -60h-40z" />
<glyph unicode="v" d="M320 360l-100 -360h-40l-100 360v40h40v-40l80 -320l80 320v40h40v-40z" />
<glyph unicode="w" d="M300 400h40v-320q0 -74 -80 -80q-56 0 -60 60q-4 -60 -60 -60q-80 6 -80 80v320h40v-320q0 -37 40 -40q40 3 40 40v320h40v-320q0 -37 40 -40q40 3 40 40v320z" />
<glyph unicode="x" d="M320 400v-40l-89 -160l89 -160v-40h-40v40l-80 140l-80 -140v-40h-40v40l89 160l-89 160v40h40v-40l80 -140l80 140v40h40z" />
<glyph unicode="y" d="M280 400h40v-40l-100 -360v-60q-7 -100 -100 -100h-40v40h40q56 0 60 60v60l-100 360v40h40v-40l80 -320l80 320v40z" />
<glyph unicode="z" d="M80 360v40h240v-40l-200 -320h200v-40h-240v40l200 320h-200z" />
<glyph unicode="{" d="M220 279q0 -53 -37 -80q37 -26 37 -80v-100q4 -60 60 -60h20v-40h-20q-93 0 -100 100v100q-4 60 -60 60h-20v40h20q56 0 60 60v100q7 100 100 100h20v-40h-20q-56 0 -60 -60v-100z" />
<glyph unicode="|" d="M220 -80h-40v560h40v-560z" />
<glyph unicode="}" d="M180 279v100q-4 60 -60 60h-20v40h20q93 0 100 -100v-100q4 -60 60 -60h20v-40h-20q-56 0 -60 -60v-100q-7 -100 -100 -100h-20v40h20q56 0 60 60v100q0 54 37 80q-37 27 -37 80z" />
<glyph unicode="~" d="M80 190q0 22 13 39q17 21 47 21q27 0 72 -34q35 -26 48 -26q19 0 20 20l1 20h39v-20q0 -22 -13 -39q-17 -21 -47 -21q-27 0 -72 34q-35 26 -48 26q-19 0 -20 -20l-1 -20h-39v20z" />
<glyph unicode="&#xa0;" />
<glyph unicode="&#xa1;" d="M230 340h-60v60h60v-60zM180 -80v320h40v-320h-40z" />
<glyph unicode="&#xa2;" d="M320 300h-40v40q0 56 -60 60h-40q-56 0 -60 -60v-200q4 -60 60 -60h40q60 4 60 60v40h40v-40q-7 -100 -100 -100h-7v-40h-26v40h-7q-93 0 -100 100v200q7 100 100 100h7v40h26v-40h7q93 0 100 -100v-40z" />
<glyph unicode="&#xa3;" d="M120 40h200v-40h-240v234h-40v26h40v120q7 100 100 100h40q93 0 100 -100v-40h-40v40q0 56 -60 60h-40q-56 0 -60 -60v-120h120v-26h-120v-194z" />
<glyph unicode="&#xa4;" d="M320 340h-40v40q0 56 -60 60h-40q-56 0 -60 -60v-80h100v-26h-100v-68h100v-26h-100v-80q4 -60 60 -60h40q60 4 60 60v40h40v-40q-7 -100 -100 -100h-40q-93 0 -100 100v80h-40v26h40v68h-40v26h40v80q7 100 100 100h40q93 0 100 -100v-40z" />
<glyph unicode="&#xa5;" d="M320 480v-40l-86 -240h66v-26h-75l-5 -14v-54h80v-26h-80v-80h-40v80h-80v26h80v54l-5 14h-75v26h66l-86 240v40h40v-40l80 -240l80 240v40h40z" />
<glyph unicode="&#xa6;" d="M220 220h-40v260h40v-260zM220 -80h-40v260h40v-260z" />
<glyph unicode="&#xa7;" d="M320 339h-40v40q0 56 -60 60h-40q-56 0 -60 -60v-20q4 -60 60 -60h40q93 0 100 -100q0 -53 -37 -80q37 -26 37 -80v-20q-7 -100 -100 -100h-40q-93 0 -100 100v40h40v-40q0 -55 60 -60h40q56 0 60 60v20q-4 60 -60 60h-40q-93 0 -100 100q0 54 37 80q-37 33 -37 80v20 q7 100 100 100h40q93 0 100 -100v-40zM180 259q-56 0 -60 -60q0 -55 60 -60h40q56 0 60 60q0 56 -60 60h-40z" />
<glyph unicode="&#xa8;" d="M100 460v60h60v-60h-60zM240 520h60v-60h-60v60z" />
<glyph unicode="&#xa9;" d="M200 480q75 0 127.5 -52.5t52.5 -127.5t-52.5 -127.5t-127.5 -52.5t-127.5 52.5t-52.5 127.5t52.5 127.5t127.5 52.5zM200 140q66 0 113 47t47 113t-47 113t-113 47t-113 -47t-47 -113t47 -113t113 -47zM270 320h-40v10q0 19 -20 20h-20q-19 0 -20 -20v-60q0 -19 20 -20 h20q19 0 20 20v10h40q0 -56 -60 -60h-20q-56 0 -60 60v40q0 56 60 60h20q56 0 60 -60z" />
<glyph unicode="&#xaa;" d="M100 200v26h200v-26h-200zM205 480q60 -4 60 -60v-140h-20l-10 30q0 -28 -30 -30h-10q-56 0 -60 60v10q0 46 50 50h50v20q-2 30 -30 30h-60v30h60zM165 350v-10q0 -28 30 -30h10q28 0 30 30v30h-50q-19 0 -20 -20z" />
<glyph unicode="&#xab;" d="M220 340l-100 -140l100 -140h-40l-100 140l100 140h40zM320 340l-100 -140l100 -140h-40l-100 140l100 140h40z" />
<glyph unicode="&#xac;" d="M320 100h-40v80h-200v40h240v-120z" />
<glyph unicode="&#xad;" d="M80 220h240v-40h-240v40z" />
<glyph unicode="&#xae;" d="M200 480q75 0 127.5 -52.5t52.5 -127.5t-52.5 -127.5t-127.5 -52.5t-127.5 52.5t-52.5 127.5t52.5 127.5t127.5 52.5zM200 140q66 0 113 47t47 113t-47 113t-113 47t-113 -47t-47 -113t47 -113t113 -47zM270 325q0 -20 -13 -35t-32 -19l45 -51h-46l-37 50h-17v-50h-40 v160h85q23 0 39 -16t16 -39zM230 320v10q0 19 -20 20h-40v-50h40q19 0 20 20z" />
<glyph unicode="&#xaf;" d="M40 480h320v-40h-320v40z" />
<glyph unicode="&#xb0;" d="M210 480q46 0 50 -50v-19q-4 -50 -50 -50h-20q-46 0 -50 50v19q4 50 50 50h20zM240 411v19q0 28 -30 30h-20q-28 0 -30 -30v-19q2 -30 30 -30h20q30 2 30 30z" />
<glyph unicode="&#xb1;" d="M320 240v-40h-100v-100h-40v100h-100v40h100v100h40v-100h100zM80 40h240v-40h-240v40z" />
<glyph unicode="&#xb2;" d="M195 360q-28 0 -30 -30v-20h100v-30h-130v50q4 60 60 60h10q28 0 30 30q-2 30 -30 30h-10q-30 -2 -30 -30v-10h-30v10q0 56 60 60h10q56 0 60 -60q-4 -60 -60 -60h-10z" />
<glyph unicode="&#xb3;" d="M235 380q30 -5 30 -40q-4 -60 -60 -60h-10q-60 4 -60 60v10h30v-10q2 -30 30 -30h10q28 0 30 30q-2 30 -30 27h-20v26h20q28 -3 30 27q-2 30 -30 30h-10q-30 -2 -30 -30v-10h-30v10q0 56 60 60h10q56 0 60 -60q0 -35 -30 -40z" />
<glyph unicode="&#xb4;" d="M260 560l-40 -120h-40l40 120h40z" />
<glyph unicode="&#xb5;" d="M280 400h40v-400h-20l-20 60q0 -56 -60 -60h-40q-30 0 -60 18v-178h-40v560h40v-300q0 -56 60 -60h40q56 0 60 60v300z" />
<glyph unicode="&#xb6;" d="M180 480h60v-560h-40v260h-20q-93 0 -100 100v100q7 100 100 100zM280 480h40v-560h-40v560z" />
<glyph unicode="&#xb7;" d="M220 230v-60h-60v60h60z" />
<glyph unicode="&#xb8;" d="M120 -80h20q40 3 40 40v40h40v-40q-6 -80 -80 -80h-20v40z" />
<glyph unicode="&#xb9;" d="M145 460l35 20h35v-170h40v-30h-110v30h40v140l-40 -20v30z" />
<glyph unicode="&#xba;" d="M100 200v26h200v-26h-200zM205 480q56 0 60 -60v-80q0 -56 -60 -60h-10q-56 0 -60 60v80q0 56 60 60h10zM235 340v80q-2 30 -30 30h-10q-30 -2 -30 -30v-80q2 -30 30 -30h10q30 2 30 30z" />
<glyph unicode="&#xbb;" d="M180 340h40l100 -140l-100 -140h-40l100 140zM80 340h40l100 -140l-100 -140h-40l100 140z" />
<glyph unicode="&#xbc;" d="M80 460l35 20h35v-170h40v-30h-110v30h40v140l-40 -20v30zM320 70v-30h-20v-40h-30v40h-90v20l90 140h30v-130h20zM210 70h60v90zM332 391l19 -19l-283 -283l-19 19z" />
<glyph unicode="&#xbd;" d="M80 460l35 20h35v-170h40v-30h-110v30h40v140l-40 -20v30zM250 80q-28 0 -30 -30v-20h100v-30h-130v50q4 60 60 60h10q28 0 30 30q-2 30 -30 30h-10q-30 -2 -30 -30v-10h-30v10q0 56 60 60h10q56 0 60 -60q-4 -60 -60 -60h-10zM332 391l19 -19l-283 -283l-19 19z" />
<glyph unicode="&#xbe;" d="M320 70v-30h-20v-40h-30v40h-90v20l90 140h30v-130h20zM210 70h60v90zM180 380q30 -5 30 -40q-4 -60 -60 -60h-10q-60 4 -60 60v10h30v-10q2 -30 30 -30h10q28 0 30 30q-2 30 -30 27h-20v26h20q28 -3 30 27q-2 30 -30 30h-10q-30 -2 -30 -30v-10h-30v10q0 56 60 60h10 q56 0 60 -60q0 -35 -30 -40zM332 391l19 -19l-283 -283l-19 19z" />
<glyph unicode="&#xbf;" d="M180 -80q-93 0 -100 100v80q0 93 100 100v40h40v-80h-40q-56 0 -60 -60v-80q4 -60 60 -60h40q60 4 60 60v40h40v-40q-7 -100 -100 -100h-40zM230 400v-60h-60v60h60z" />
<glyph unicode="&#xc0;" d="M140 640h40l40 -120h-40zM144 160l-24 -120v-40h-40v40l100 440h40l100 -440v-40h-40v40l-24 120h-112zM248 200l-48 240l-48 -240h96z" />
<glyph unicode="&#xc1;" d="M260 640l-40 -120h-40l40 120h40zM144 160l-24 -120v-40h-40v40l100 440h40l100 -440v-40h-40v40l-24 120h-112zM248 200l-48 240l-48 -240h96z" />
<glyph unicode="&#xc2;" d="M200 640l80 -120h-40l-40 70l-40 -70h-40zM144 160l-24 -120v-40h-40v40l100 440h40l100 -440v-40h-40v40l-24 120h-112zM248 200l-48 240l-48 -240h96z" />
<glyph unicode="&#xc3;" d="M106 554q0 20 13.5 37.5t40.5 17.5q28 0 52 -37q16 -23 28 -23q25 0 26 25v15h28v-15q0 -20 -12 -35q-15 -19 -42 -19q-28 0 -52 36q-16 24 -28 24q-25 0 -26 -26v-14h-28v14zM144 160l-24 -120v-40h-40v40l100 440h40l100 -440v-40h-40v40l-24 120h-112zM248 200 l-48 240l-48 -240h96z" />
<glyph unicode="&#xc4;" d="M100 540v60h60v-60h-60zM240 600h60v-60h-60v60zM144 160l-24 -120v-40h-40v40l100 440h40l100 -440v-40h-40v40l-24 120h-112zM248 200l-48 240l-48 -240h96z" />
<glyph unicode="&#xc5;" d="M200 640q25 0 42.5 -17.5t17.5 -42.5t-17.5 -42.5t-42.5 -17.5t-42.5 17.5t-17.5 42.5t17.5 42.5t42.5 17.5zM200 542q16 0 26.5 11t10.5 27t-10.5 26.5t-26.5 10.5t-27 -10.5t-11 -26.5t11 -27t27 -11zM144 160l-24 -120v-40h-40v40l100 440h40l100 -440v-40h-40v40 l-24 120h-112zM248 200l-48 240l-48 -240h96z" />
<glyph unicode="&#xc6;" horiz-adv-x="800" d="M700 440h-160v-180h140v-40h-140v-180h160v-40h-200v480h200v-40zM220 480l100 -440v-40h-40v40l-24 120h-112l-24 -120v-40h-40v40l100 440h40zM152 200h96l-48 240z" />
<glyph unicode="&#xc7;" d="M320 340h-40v40q0 56 -60 60h-40q-56 0 -60 -60v-280q4 -60 60 -60h40q60 4 60 60v40h40v-40q-7 -100 -100 -100h-40q-93 0 -100 100v280q7 100 100 100h40q93 0 100 -100v-40zM120 -80h20q40 3 40 40v40h40v-40q-6 -80 -80 -80h-20v40z" />
<glyph unicode="&#xc8;" d="M140 640h40l40 -120h-40zM300 440h-160v-180h140v-40h-140v-180h160v-40h-200v480h200v-40z" />
<glyph unicode="&#xc9;" d="M260 640l-40 -120h-40l40 120h40zM300 440h-160v-180h140v-40h-140v-180h160v-40h-200v480h200v-40z" />
<glyph unicode="&#xca;" d="M200 640l80 -120h-40l-40 70l-40 -70h-40zM300 440h-160v-180h140v-40h-140v-180h160v-40h-200v480h200v-40z" />
<glyph unicode="&#xcb;" d="M100 540v60h60v-60h-60zM240 600h60v-60h-60v60zM300 440h-160v-180h140v-40h-140v-180h160v-40h-200v480h200v-40z" />
<glyph unicode="&#xcc;" d="M140 640h40l40 -120h-40zM300 440h-80v-400h80v-40h-200v40h80v400h-80v40h200v-40z" />
<glyph unicode="&#xcd;" d="M260 640l-40 -120h-40l40 120h40zM300 440h-80v-400h80v-40h-200v40h80v400h-80v40h200v-40z" />
<glyph unicode="&#xce;" d="M200 640l80 -120h-40l-40 70l-40 -70h-40zM300 440h-80v-400h80v-40h-200v40h80v400h-80v40h200v-40z" />
<glyph unicode="&#xcf;" d="M100 540v60h60v-60h-60zM240 600h60v-60h-60v60zM300 440h-80v-400h80v-40h-200v40h80v400h-80v40h200v-40z" />
<glyph unicode="&#xd0;" d="M220 480q93 0 100 -100v-280q-7 -100 -100 -100h-140v180l-58 -10l-5 25l63 11v274h140zM280 100v280q0 56 -60 60h-100v-227l94 17l5 -25l-99 -18v-147h100q60 4 60 60z" />
<glyph unicode="&#xd1;" d="M106 554q0 20 13.5 37.5t40.5 17.5q28 0 52 -37q16 -23 28 -23q25 0 26 25v15h28v-15q0 -20 -12 -35q-15 -19 -42 -19q-28 0 -52 36q-16 24 -28 24q-25 0 -26 -26v-14h-28v14zM280 480h40v-480h-40v40l-160 320v-360h-40v480h40v-40l160 -320v360z" />
<glyph unicode="&#xd2;" d="M140 640h40l40 -120h-40zM220 480q93 0 100 -100v-280q-7 -100 -100 -100h-40q-93 0 -100 100v280q7 100 100 100h40zM280 100v280q0 56 -60 60h-40q-56 0 -60 -60v-280q4 -60 60 -60h40q60 4 60 60z" />
<glyph unicode="&#xd3;" d="M260 640l-40 -120h-40l40 120h40zM220 480q93 0 100 -100v-280q-7 -100 -100 -100h-40q-93 0 -100 100v280q7 100 100 100h40zM280 100v280q0 56 -60 60h-40q-56 0 -60 -60v-280q4 -60 60 -60h40q60 4 60 60z" />
<glyph unicode="&#xd4;" d="M200 640l80 -120h-40l-40 70l-40 -70h-40zM220 480q93 0 100 -100v-280q-7 -100 -100 -100h-40q-93 0 -100 100v280q7 100 100 100h40zM280 100v280q0 56 -60 60h-40q-56 0 -60 -60v-280q4 -60 60 -60h40q60 4 60 60z" />
<glyph unicode="&#xd5;" d="M106 554q0 20 13.5 37.5t40.5 17.5q28 0 52 -37q16 -23 28 -23q25 0 26 25v15h28v-15q0 -20 -12 -35q-15 -19 -42 -19q-28 0 -52 36q-16 24 -28 24q-25 0 -26 -26v-14h-28v14zM220 480q93 0 100 -100v-280q-7 -100 -100 -100h-40q-93 0 -100 100v280q7 100 100 100h40z M280 100v280q0 56 -60 60h-40q-56 0 -60 -60v-280q4 -60 60 -60h40q60 4 60 60z" />
<glyph unicode="&#xd6;" d="M100 540v60h60v-60h-60zM240 600h60v-60h-60v60zM220 480q93 0 100 -100v-280q-7 -100 -100 -100h-40q-93 0 -100 100v280q7 100 100 100h40zM280 100v280q0 56 -60 60h-40q-56 0 -60 -60v-280q4 -60 60 -60h40q60 4 60 60z" />
<glyph unicode="&#xd7;" d="M271 299l28 -28l-71 -71l71 -71l-28 -28l-71 71l-71 -71l-28 28l71 71l-71 71l28 28l71 -71z" />
<glyph unicode="&#xd8;" d="M291 453q29 -26 29 -73v-280q-7 -100 -100 -100h-40q-23 0 -49 12l-15 -40l-24 9l17 46q-29 26 -29 73v280q7 100 100 100h40q23 0 49 -12l15 40l24 -9zM120 100q0 -16 5 -27l130 357q-14 10 -35 10h-40q-56 0 -60 -60v-280zM280 100v280q0 12 -6 26l-129 -356 q18 -10 35 -10h40q60 4 60 60z" />
<glyph unicode="&#xd9;" d="M140 640h40l40 -120h-40zM280 480h40v-380q-7 -100 -100 -100h-40q-93 0 -100 100v380h40v-380q4 -60 60 -60h40q60 4 60 60v380z" />
<glyph unicode="&#xda;" d="M260 640l-40 -120h-40l40 120h40zM280 480h40v-380q-7 -100 -100 -100h-40q-93 0 -100 100v380h40v-380q4 -60 60 -60h40q60 4 60 60v380z" />
<glyph unicode="&#xdb;" d="M200 640l80 -120h-40l-40 70l-40 -70h-40zM280 480h40v-380q-7 -100 -100 -100h-40q-93 0 -100 100v380h40v-380q4 -60 60 -60h40q60 4 60 60v380z" />
<glyph unicode="&#xdc;" d="M100 540v60h60v-60h-60zM240 600h60v-60h-60v60zM280 480h40v-380q-7 -100 -100 -100h-40q-93 0 -100 100v380h40v-380q4 -60 60 -60h40q60 4 60 60v380z" />
<glyph unicode="&#xdd;" d="M260 640l-40 -120h-40l40 120h40zM280 480h40v-40l-100 -280v-160h-40v160l-100 280v40h40v-40l80 -240l80 240v40z" />
<glyph unicode="&#xde;" d="M220 400q93 0 100 -100v-120q-7 -100 -100 -100h-100v-80h-40v480h40v-80h100zM280 180v120q0 56 -60 60h-100v-240h100q60 4 60 60z" />
<glyph unicode="&#xdf;" d="M220 0h-60v40h60q60 4 60 60v100q0 56 -60 60h-60v40h60q60 4 60 60v100q0 56 -60 60h-40q-56 0 -60 -60v-460h-40v460q7 100 100 100h40q93 0 100 -100v-100q0 -54 -37 -80q37 -26 37 -80v-100q-7 -100 -100 -100z" />
<glyph unicode="&#xe0;" d="M220 400q100 -7 100 -100v-300h-20l-20 60q0 -56 -60 -60h-40q-93 0 -100 100v20q0 93 100 100h100v80q-4 60 -60 60h-120v40h120zM280 100v80h-100q-56 0 -60 -60v-20q0 -56 60 -60h40q56 0 60 60zM140 560h40l40 -120h-40z" />
<glyph unicode="&#xe1;" d="M220 400q100 -7 100 -100v-300h-20l-20 60q0 -56 -60 -60h-40q-93 0 -100 100v20q0 93 100 100h100v80q-4 60 -60 60h-120v40h120zM280 100v80h-100q-56 0 -60 -60v-20q0 -56 60 -60h40q56 0 60 60zM260 560l-40 -120h-40l40 120h40z" />
<glyph unicode="&#xe2;" d="M220 400q100 -7 100 -100v-300h-20l-20 60q0 -56 -60 -60h-40q-93 0 -100 100v20q0 93 100 100h100v80q-4 60 -60 60h-120v40h120zM280 100v80h-100q-56 0 -60 -60v-20q0 -56 60 -60h40q56 0 60 60zM200 560l80 -120h-40l-40 70l-40 -70h-40z" />
<glyph unicode="&#xe3;" d="M220 400q100 -7 100 -100v-300h-20l-20 60q0 -56 -60 -60h-40q-93 0 -100 100v20q0 93 100 100h100v80q-4 60 -60 60h-120v40h120zM280 100v80h-100q-56 0 -60 -60v-20q0 -56 60 -60h40q56 0 60 60zM106 474q0 20 13.5 37.5t40.5 17.5q28 0 52 -37q16 -23 28 -23 q25 0 26 25v15h28v-15q0 -20 -12 -35q-15 -19 -42 -19q-28 0 -52 36q-16 24 -28 24q-25 0 -26 -26v-14h-28v14z" />
<glyph unicode="&#xe4;" d="M220 400q100 -7 100 -100v-300h-20l-20 60q0 -56 -60 -60h-40q-93 0 -100 100v20q0 93 100 100h100v80q-4 60 -60 60h-120v40h120zM280 100v80h-100q-56 0 -60 -60v-20q0 -56 60 -60h40q56 0 60 60zM100 460v60h60v-60h-60zM240 520h60v-60h-60v60z" />
<glyph unicode="&#xe5;" d="M220 400q100 -7 100 -100v-300h-20l-20 60q0 -56 -60 -60h-40q-93 0 -100 100v20q0 93 100 100h100v80q-4 60 -60 60h-120v40h120zM280 100v80h-100q-56 0 -60 -60v-20q0 -56 60 -60h40q56 0 60 60zM200 560q25 0 42.5 -17.5t17.5 -42.5t-17.5 -42.5t-42.5 -17.5 t-42.5 17.5t-17.5 42.5t17.5 42.5t42.5 17.5zM200 462q16 0 26.5 11t10.5 27t-10.5 26.5t-26.5 10.5t-27 -10.5t-11 -26.5t11 -27t27 -11z" />
<glyph unicode="&#xe6;" horiz-adv-x="800" d="M220 400q100 -7 100 -100v-300h-20l-20 60q0 -56 -60 -60h-40q-93 0 -100 100v20q0 93 100 100h100v80q-4 60 -60 60h-120v40h120zM280 100v80h-100q-56 0 -60 -60v-20q0 -56 60 -60h40q56 0 60 60zM720 180h-200v-80q4 -60 60 -60h40q60 4 60 60v20h40v-20 q-7 -100 -100 -100h-40q-93 0 -100 100v200q7 100 100 100h40q93 0 100 -100v-120zM520 300v-80h160v80q0 56 -60 60h-40q-56 0 -60 -60z" />
<glyph unicode="&#xe7;" d="M320 260h-40v40q0 56 -60 60h-40q-56 0 -60 -60v-200q4 -60 60 -60h40q60 4 60 60v40h40v-40q-7 -100 -100 -100h-40q-93 0 -100 100v200q7 100 100 100h40q93 0 100 -100v-40zM120 -80h20q40 3 40 40v40h40v-40q-6 -80 -80 -80h-20v40z" />
<glyph unicode="&#xe8;" d="M320 180h-200v-80q4 -60 60 -60h40q60 4 60 60v20h40v-20q-7 -100 -100 -100h-40q-93 0 -100 100v200q7 100 100 100h40q93 0 100 -100v-120zM120 300v-80h160v80q0 56 -60 60h-40q-56 0 -60 -60zM140 560h40l40 -120h-40z" />
<glyph unicode="&#xe9;" d="M320 180h-200v-80q4 -60 60 -60h40q60 4 60 60v20h40v-20q-7 -100 -100 -100h-40q-93 0 -100 100v200q7 100 100 100h40q93 0 100 -100v-120zM120 300v-80h160v80q0 56 -60 60h-40q-56 0 -60 -60zM260 560l-40 -120h-40l40 120h40z" />
<glyph unicode="&#xea;" d="M320 180h-200v-80q4 -60 60 -60h40q60 4 60 60v20h40v-20q-7 -100 -100 -100h-40q-93 0 -100 100v200q7 100 100 100h40q93 0 100 -100v-120zM120 300v-80h160v80q0 56 -60 60h-40q-56 0 -60 -60zM200 560l80 -120h-40l-40 70l-40 -70h-40z" />
<glyph unicode="&#xeb;" d="M320 180h-200v-80q4 -60 60 -60h40q60 4 60 60v20h40v-20q-7 -100 -100 -100h-40q-93 0 -100 100v200q7 100 100 100h40q93 0 100 -100v-120zM120 300v-80h160v80q0 56 -60 60h-40q-56 0 -60 -60zM100 460v60h60v-60h-60zM240 520h60v-60h-60v60z" />
<glyph unicode="&#xec;" d="M220 40h100v-40h-240v40h100v320h-80v40h120v-360zM140 560h40l40 -120h-40z" />
<glyph unicode="&#xed;" d="M220 40h100v-40h-240v40h100v320h-80v40h120v-360zM260 560l-40 -120h-40l40 120h40z" />
<glyph unicode="&#xee;" d="M220 40h100v-40h-240v40h100v320h-80v40h120v-360zM200 560l80 -120h-40l-40 70l-40 -70h-40z" />
<glyph unicode="&#xef;" d="M220 40h100v-40h-240v40h100v320h-80v40h120v-360zM100 460v60h60v-60h-60zM240 520h60v-60h-60v60z" />
<glyph unicode="&#xf0;" d="M245 538q75 -41 75 -138v-300q-7 -100 -100 -100h-40q-93 0 -100 100v160q7 100 100 100h100v40q0 70 -53 101l-45 -97l-23 11l45 97q-25 8 -44 8h-60v40h60q26 0 61 -12l22 48l24 -11zM280 100v220h-100q-60 -4 -60 -60v-160q0 -56 60 -60h40q56 0 60 60z" />
<glyph unicode="&#xf1;" d="M220 400q93 0 100 -100v-300h-40v300q0 56 -60 60h-40q-56 0 -60 -60v-300h-40v400h20l20 -60q0 56 60 60h40zM106 474q0 20 13.5 37.5t40.5 17.5q28 0 52 -37q16 -23 28 -23q25 0 26 25v15h28v-15q0 -20 -12 -35q-15 -19 -42 -19q-28 0 -52 36q-16 24 -28 24 q-25 0 -26 -26v-14h-28v14z" />
<glyph unicode="&#xf2;" d="M220 400q93 0 100 -100v-200q-7 -100 -100 -100h-40q-93 0 -100 100v200q7 100 100 100h40zM280 100v200q0 56 -60 60h-40q-56 0 -60 -60v-200q4 -60 60 -60h40q60 4 60 60zM140 560h40l40 -120h-40z" />
<glyph unicode="&#xf3;" d="M220 400q93 0 100 -100v-200q-7 -100 -100 -100h-40q-93 0 -100 100v200q7 100 100 100h40zM280 100v200q0 56 -60 60h-40q-56 0 -60 -60v-200q4 -60 60 -60h40q60 4 60 60zM260 560l-40 -120h-40l40 120h40z" />
<glyph unicode="&#xf4;" d="M220 400q93 0 100 -100v-200q-7 -100 -100 -100h-40q-93 0 -100 100v200q7 100 100 100h40zM280 100v200q0 56 -60 60h-40q-56 0 -60 -60v-200q4 -60 60 -60h40q60 4 60 60zM200 560l80 -120h-40l-40 70l-40 -70h-40z" />
<glyph unicode="&#xf5;" d="M220 400q93 0 100 -100v-200q-7 -100 -100 -100h-40q-93 0 -100 100v200q7 100 100 100h40zM280 100v200q0 56 -60 60h-40q-56 0 -60 -60v-200q4 -60 60 -60h40q60 4 60 60zM106 474q0 20 13.5 37.5t40.5 17.5q28 0 52 -37q16 -23 28 -23q25 0 26 25v15h28v-15 q0 -20 -12 -35q-15 -19 -42 -19q-28 0 -52 36q-16 24 -28 24q-25 0 -26 -26v-14h-28v14z" />
<glyph unicode="&#xf6;" d="M220 400q93 0 100 -100v-200q-7 -100 -100 -100h-40q-93 0 -100 100v200q7 100 100 100h40zM280 100v200q0 56 -60 60h-40q-56 0 -60 -60v-200q4 -60 60 -60h40q60 4 60 60zM100 460v60h60v-60h-60zM240 520h60v-60h-60v60z" />
<glyph unicode="&#xf7;" d="M80 220h240v-40h-240v40zM220 320v-40h-40v40h40zM180 80v40h40v-40h-40z" />
<glyph unicode="&#xf8;" d="M295 369q25 -26 25 -69v-200q-7 -100 -100 -100h-40q-24 0 -51 13l-19 -41l-23 11l21 45q-28 26 -28 72v200q7 100 100 100h40q26 0 54 -15l16 33l23 -11zM120 100q0 -18 7 -31l130 280q-14 11 -37 11h-40q-56 0 -60 -60v-200zM280 100v200q0 11 -5 25l-129 -275 q18 -10 34 -10h40q60 4 60 60z" />
<glyph unicode="&#xf9;" d="M180 0q-93 0 -100 100v300h40v-300q0 -56 60 -60h40q56 0 60 60v300h40v-400h-20l-20 60q0 -56 -60 -60h-40zM140 560h40l40 -120h-40z" />
<glyph unicode="&#xfa;" d="M180 0q-93 0 -100 100v300h40v-300q0 -56 60 -60h40q56 0 60 60v300h40v-400h-20l-20 60q0 -56 -60 -60h-40zM260 560l-40 -120h-40l40 120h40z" />
<glyph unicode="&#xfb;" d="M180 0q-93 0 -100 100v300h40v-300q0 -56 60 -60h40q56 0 60 60v300h40v-400h-20l-20 60q0 -56 -60 -60h-40zM200 560l80 -120h-40l-40 70l-40 -70h-40z" />
<glyph unicode="&#xfc;" d="M180 0q-93 0 -100 100v300h40v-300q0 -56 60 -60h40q56 0 60 60v300h40v-400h-20l-20 60q0 -56 -60 -60h-40zM100 460v60h60v-60h-60zM240 520h60v-60h-60v60z" />
<glyph unicode="&#xfd;" d="M280 400h40v-40l-100 -360v-60q-7 -100 -100 -100h-40v40h40q56 0 60 60v60l-100 360v40h40v-40l80 -320l80 320v40zM260 560l-40 -120h-40l40 120h40z" />
<glyph unicode="&#xfe;" d="M120 -160h-40v720h40v-220q0 56 60 60h40q93 0 100 -100v-200q0 -93 -100 -100h-100v-160zM120 300v-260h100q56 0 60 60v200q0 56 -60 60h-40q-56 0 -60 -60z" />
<glyph unicode="&#xff;" d="M280 400h40v-40l-100 -360v-60q-7 -100 -100 -100h-40v40h40q56 0 60 60v60l-100 360v40h40v-40l80 -320l80 320v40zM100 460v60h60v-60h-60zM240 520h60v-60h-60v60z" />
<glyph unicode="&#x152;" horiz-adv-x="800" d="M220 480q93 0 100 -100v-280q-7 -100 -100 -100h-40q-93 0 -100 100v280q7 100 100 100h40zM280 100v280q0 56 -60 60h-40q-56 0 -60 -60v-280q4 -60 60 -60h40q60 4 60 60zM700 440h-160v-180h140v-40h-140v-180h160v-40h-200v480h200v-40z" />
<glyph unicode="&#x153;" horiz-adv-x="800" d="M220 400q93 0 100 -100v-200q-7 -100 -100 -100h-40q-93 0 -100 100v200q7 100 100 100h40zM280 100v200q0 56 -60 60h-40q-56 0 -60 -60v-200q4 -60 60 -60h40q60 4 60 60zM720 180h-200v-80q4 -60 60 -60h40q60 4 60 60v20h40v-20q-7 -100 -100 -100h-40 q-93 0 -100 100v200q7 100 100 100h40q93 0 100 -100v-120zM520 300v-80h160v80q0 56 -60 60h-40q-56 0 -60 -60z" />
<glyph unicode="&#x178;" d="M100 540v60h60v-60h-60zM240 600h60v-60h-60v60zM280 480h40v-40l-100 -280v-160h-40v160l-100 280v40h40v-40l80 -240l80 240v40z" />
<glyph unicode="&#x2c6;" d="M200 560l80 -120h-40l-40 70l-40 -70h-40z" />
<glyph unicode="&#x2dc;" d="M106 474q0 20 13.5 37.5t40.5 17.5q28 0 52 -37q16 -23 28 -23q25 0 26 25v15h28v-15q0 -20 -12 -35q-15 -19 -42 -19q-28 0 -52 36q-16 24 -28 24q-25 0 -26 -26v-14h-28v14z" />
<glyph unicode="&#x2000;" horiz-adv-x="320" />
<glyph unicode="&#x2001;" horiz-adv-x="640" />
<glyph unicode="&#x2002;" horiz-adv-x="320" />
<glyph unicode="&#x2003;" horiz-adv-x="640" />
<glyph unicode="&#x2004;" horiz-adv-x="213" />
<glyph unicode="&#x2005;" horiz-adv-x="160" />
<glyph unicode="&#x2006;" horiz-adv-x="106" />
<glyph unicode="&#x2007;" horiz-adv-x="106" />
<glyph unicode="&#x2008;" horiz-adv-x="80" />
<glyph unicode="&#x2009;" horiz-adv-x="128" />
<glyph unicode="&#x200a;" horiz-adv-x="35" />
<glyph unicode="&#x2010;" d="M80 220h240v-40h-240v40z" />
<glyph unicode="&#x2011;" d="M80 220h240v-40h-240v40z" />
<glyph unicode="&#x2012;" d="M80 220h240v-40h-240v40z" />
<glyph unicode="&#x2013;" d="M100 220h200v-40h-200v40z" />
<glyph unicode="&#x2014;" d="M40 220h320v-40h-320v40z" />
<glyph unicode="&#x2018;" d="M230 340h-60l40 140h20v-140z" />
<glyph unicode="&#x2019;" d="M170 480h60l-40 -140h-20v140z" />
<glyph unicode="&#x201a;" d="M170 60h60l-40 -140h-20v140z" />
<glyph unicode="&#x201c;" d="M300 340h-60l40 140h20v-140zM160 340h-60l40 140h20v-140z" />
<glyph unicode="&#x201d;" d="M100 480h60l-40 -140h-20v140zM240 480h60l-40 -140h-20v140z" />
<glyph unicode="&#x201e;" d="M100 60h60l-40 -140h-20v140zM240 60h60l-40 -140h-20v140z" />
<glyph unicode="&#x2022;" d="M240 200q0 -21 -14.5 -35.5t-35.5 -14.5t-35.5 14.5t-14.5 35.5t14.5 35.5t35.5 14.5t35.5 -14.5t14.5 -35.5z" />
<glyph unicode="&#x2026;" d="M120 61v-60h-60v60h60zM340 61v-60h-60v60h60zM230 61v-60h-60v60h60z" />
<glyph unicode="&#x202f;" horiz-adv-x="128" />
<glyph unicode="&#x2039;" d="M270 340l-100 -140l100 -140h-40l-100 140l100 140h40z" />
<glyph unicode="&#x203a;" d="M130 340h40l100 -140l-100 -140h-40l100 140z" />
<glyph unicode="&#x205f;" horiz-adv-x="160" />
<glyph unicode="&#x2122;" d="M167 480v-27h-40v-193h-27v193h-40v27h107zM300 480h40v-220h-27v193l-53 -186l-53 186v-193h-27v220h40l40 -147z" />
<glyph unicode="&#x25fc;" d="M0 400h400v-400h-400v400z" />
</font>
</defs>
</svg>
