<?xml version="1.0" standalone="no"?>
<!DOCTYPE svg PUBLIC "-//W3C//DTD SVG 1.1//EN" "http://www.w3.org/Graphics/SVG/1.1/DTD/svg11.dtd" >
<svg xmlns="http://www.w3.org/2000/svg" xmlns:xlink="http://www.w3.org/1999/xlink" version="1.1">
<metadata></metadata>
<defs>
<font id="audimat_monobold" horiz-adv-x="400" >
<font-face units-per-em="760" ascent="608" descent="-152" />
<missing-glyph horiz-adv-x="500" />
<glyph horiz-adv-x="0" />
<glyph unicode="&#xd;" />
<glyph unicode=" " />
<glyph unicode="!" d="M150 0v100h100v-100h-100zM140 480h120v-80l-20 -240h-80l-20 240v80z" />
<glyph unicode="&#x22;" d="M160 400l-20 -100h-60l-20 100v80h100v-80zM340 400l-20 -100h-60l-20 100v80h100v-80z" />
<glyph unicode="#" d="M360 280h-55l-10 -80h65v-60h-73l-7 -60h-60l7 60h-80l-7 -60h-60l7 60h-47v60h55l10 80h-65v60h72l8 60h60l-8 -60h80l8 60h60l-8 -60h48v-60zM235 200l10 80h-80l-10 -80h80z" />
<glyph unicode="$" d="M360 340h-120v20q0 37 -40 40q-37 0 -40 -40v-40q0 -37 40 -40h40q75 0 105 -60q12 -25 15 -60v-40q-3 -35 -15 -60q-30 -60 -105 -60h-20v-40h-40v40h-20q-35 2 -60 15q-60 30 -60 105v20h120v-20q3 -40 40 -40q40 3 40 40v40q0 37 -40 40h-40q-75 0 -105 60 q-12 25 -15 60v40q0 75 60 105q25 12 60 15h20v40h40v-40h20q75 0 105 -60q12 -25 15 -60v-20z" />
<glyph unicode="%" d="M327 396l29 -29l-283 -283l-29 29zM280 160q33 0 56.5 -23.5t23.5 -56.5t-23.5 -56.5t-56.5 -23.5t-56.5 23.5t-23.5 56.5t23.5 56.5t56.5 23.5zM300 60v40q0 19 -20 20q-19 0 -20 -20v-40q0 -19 20 -20q19 0 20 20zM120 320q-33 0 -56.5 23.5t-23.5 56.5t23.5 56.5 t56.5 23.5t56.5 -23.5t23.5 -56.5t-23.5 -56.5t-56.5 -23.5zM100 420v-40q0 -19 20 -20q19 0 20 20v40q0 19 -20 20q-19 0 -20 -20z" />
<glyph unicode="&#x26;" d="M360 320h-120v80h-79l199 -320v-80h-120v80l-68 109q-12 -10 -12 -29v-40q0 -37 40 -40v-80h-40q-75 0 -105 60q-12 25 -15 60v40q0 84 79 114l-79 126v80h320v-160z" />
<glyph unicode="'" d="M250 400l-20 -100h-60l-20 100v80h100v-80z" />
<glyph unicode="(" d="M200 480h120v-80h-80q-37 0 -40 -40v-320q3 -40 40 -40h80v-80h-120q-35 3 -60 15q-60 30 -60 105v320q0 75 60 105q25 12 60 15z" />
<glyph unicode=")" d="M200 480q35 -3 60 -15q60 -30 60 -105v-320q0 -75 -60 -105q-25 -12 -60 -15h-120v80h80q37 0 40 40v320q-3 40 -40 40h-80v80h120z" />
<glyph unicode="*" d="M341 359l-98 -32l60 -83l-42 -31l-61 83l-60 -83l-42 31l60 83l-98 32l16 50l98 -32v103h53v-103l98 32z" />
<glyph unicode="+" d="M360 240v-80h-120v-120h-80v120h-120v80h120v120h80v-120h120z" />
<glyph unicode="," d="M160 100h100l-80 -180h-20v180z" />
<glyph unicode="-" d="M40 240h320v-80h-320v80z" />
<glyph unicode="." d="M260 100v-100h-100v100h100z" />
<glyph unicode="/" d="M280 400v80h80v-80l-240 -360v-80h-80v80z" />
<glyph unicode="0" d="M200 480q66 0 113 -47t47 -113v-160q0 -66 -47 -113t-113 -47t-113 47t-47 113v160q0 66 47 113t113 47zM240 120v240q0 37 -40 40q-37 0 -40 -40v-240q0 -37 40 -40q37 0 40 40z" />
<glyph unicode="1" d="M260 80h80v-80h-280v80h80v300h-80v80l200 20v-400z" />
<glyph unicode="2" d="M40 0v140q3 35 15 60q30 60 105 60h40q40 3 40 40v60q-3 40 -40 40q-40 -3 -40 -40v-20h-120v20q3 35 15 60q30 60 105 60h80q35 -3 60 -15q60 -30 60 -105v-60q-3 -35 -15 -60q-30 -60 -105 -60h-40q-40 -3 -40 -40v-60h200v-80h-320z" />
<glyph unicode="3" d="M360 340q0 -61 -65 -100q65 -39 65 -100v-20q-3 -35 -15 -60q-30 -60 -105 -60h-80q-35 2 -60 15q-60 30 -60 105v20h120v-20q3 -40 40 -40q40 3 40 40v40q-3 40 -40 40h-40v80h40q40 3 40 40v40q-3 40 -40 40q-40 -3 -40 -40v-20h-120v20q3 35 15 60q30 60 105 60h80 q35 -3 60 -15q60 -30 60 -105v-20z" />
<glyph unicode="4" d="M360 180v-80h-40v-100h-120v100h-180v80l180 300h120v-300h40zM100 180h100v180z" />
<glyph unicode="5" d="M240 300q75 0 105 -60q12 -25 15 -60v-60q-3 -35 -15 -60q-30 -60 -105 -60h-80q-35 2 -60 15q-60 30 -60 105v20h120v-20q3 -40 40 -40q40 3 40 40v60q0 37 -40 40h-160v260h300v-80h-180v-100h80z" />
<glyph unicode="6" d="M40 120v240q3 35 15 60q30 60 105 60h180v-80h-140q-37 0 -40 -40v-60h80q75 0 105 -60q12 -25 15 -60v-60q-3 -35 -15 -60q-30 -60 -105 -60h-80q-35 2 -60 15q-60 30 -60 105zM240 120v60q0 37 -40 40h-40v-100q3 -40 40 -40q40 3 40 40z" />
<glyph unicode="7" d="M40 480h320v-80l-120 -320v-80h-120v80l119 320h-199v80z" />
<glyph unicode="8" d="M360 340q0 -61 -65 -100q65 -39 65 -100v-20q-3 -35 -15 -60q-30 -60 -105 -60h-80q-75 0 -105 60q-12 25 -15 60v20q0 61 65 100q-65 39 -65 100v20q0 75 60 105q25 12 60 15h80q35 -3 60 -15q60 -30 60 -105v-20zM240 120v40q-3 40 -40 40t-40 -40v-40q0 -37 40 -40 q40 3 40 40zM240 320v40q-3 40 -40 40t-40 -40v-40q0 -37 40 -40q40 3 40 40z" />
<glyph unicode="9" d="M360 360v-240q-3 -35 -15 -60q-30 -60 -105 -60h-180v80h140q37 0 40 40v60h-80q-75 0 -105 60q-12 25 -15 60v60q3 35 15 60q30 60 105 60h80q35 -3 60 -15q60 -30 60 -105zM160 360v-60q0 -37 40 -40h40v100q-3 40 -40 40q-40 -3 -40 -40z" />
<glyph unicode=":" d="M260 100v-100h-100v100h100zM260 360v-100h-100v100h100z" />
<glyph unicode=";" d="M260 360v-100h-100v100h100zM160 100h100l-80 -180h-20v180z" />
<glyph unicode="&#x3c;" d="M360 400v-100l-240 -100l240 -100v-100l-320 140v120z" />
<glyph unicode="=" d="M40 320h320v-80h-320v80zM40 80v80h320v-80h-320z" />
<glyph unicode="&#x3e;" d="M40 400l320 -140v-120l-320 -140v100l240 100l-240 100v100z" />
<glyph unicode="?" d="M150 0v100h100v-100h-100zM240 480q35 -3 60 -15q60 -30 60 -105v-60q0 -64 -44 -96q-28 -19 -66 -23v-21h-100v100h50q40 3 40 40v60q-3 40 -40 40q-40 -3 -40 -40v-20h-120v20q3 35 15 60q30 60 105 60h80z" />
<glyph unicode="@" d="M249 400q35 -2 61 -14q60 -30 60 -105l1 -160q-3 -35 -15 -60q-30 -61 -105 -61h-40l-40 60q-3 -60 -40 -60q-94 0 -102 100l1 80q7 100 100 100h120l1 -200q40 3 40 41l-1 160q-3 39 -40 39h-220l-1 80h220zM171 100l-1 100h-20q-38 0 -41 -40v-40q0 -37 40 -40 q20 0 22 20z" />
<glyph unicode="A" d="M260 480l100 -400v-80h-120v80l-8 60h-65l-7 -60v-80h-120v80l100 400h120zM177 220h45l-22 180z" />
<glyph unicode="B" d="M298 268q62 -36 62 -108v-40q0 -75 -60 -105q-25 -13 -60 -15h-200v480h180q75 0 105 -60q12 -25 15 -60v-20q0 -48 -42 -72zM160 400v-120h20q40 3 40 40v40q0 37 -40 40h-20zM240 120v40q0 37 -40 40h-40v-120h40q40 3 40 40z" />
<glyph unicode="C" d="M360 360v-20h-120v20q0 37 -40 40q-37 0 -40 -40v-240q0 -37 40 -40q37 0 40 40v20h120v-20q0 -75 -60 -105q-25 -13 -60 -15h-80q-75 0 -105 60q-12 25 -15 60v240q0 75 60 105q25 12 60 15h80q75 0 105 -60q12 -25 15 -60z" />
<glyph unicode="D" d="M240 480q75 0 105 -60q12 -25 15 -60v-240q0 -75 -60 -105q-25 -13 -60 -15h-200v480h200zM160 80h40q37 0 40 40v240q0 37 -40 40h-40v-320z" />
<glyph unicode="E" d="M340 400h-160v-120h140v-80h-140v-120h160v-80h-280v480h280v-80z" />
<glyph unicode="F" d="M340 400h-160v-120h140v-80h-140v-200h-120v480h280v-80z" />
<glyph unicode="G" d="M360 260v-140q0 -75 -60 -105q-25 -12 -60 -15h-80q-75 0 -105 60q-12 25 -15 60v240q0 75 60 105q25 12 60 15h80q75 0 105 -60q12 -25 15 -60v-20h-120v20q0 37 -40 40q-37 0 -40 -40v-240q0 -37 40 -40q37 0 40 40v60h-40v80h160z" />
<glyph unicode="H" d="M240 480h120v-480h-120v200h-80v-200h-120v480h120v-200h80v200z" />
<glyph unicode="I" d="M340 400h-80v-320h80v-80h-280v80h80v320h-80v80h280v-80z" />
<glyph unicode="J" d="M60 480h300v-360q-3 -35 -15 -60q-30 -60 -105 -60h-80q-35 2 -60 15q-60 30 -60 105v20h120v-20q3 -40 40 -40q40 3 40 40v280h-180v80z" />
<glyph unicode="K" d="M281 274q79 -30 79 -114v-160h-120v160q-3 40 -40 40h-40v-200h-120v480h120v-200h10l70 120v80h120v-80z" />
<glyph unicode="L" d="M200 80h160v-80h-280v480h120v-400z" />
<glyph unicode="M" d="M240 480h120v-480h-100v360l-60 -220l-60 220v-360h-100v480h120l40 -140z" />
<glyph unicode="N" d="M240 480h120v-480h-120v80l-80 160v-240h-120v480h120v-80l80 -160v240z" />
<glyph unicode="O" d="M240 480q75 0 105 -60q12 -25 15 -60v-240q0 -75 -60 -105q-25 -13 -60 -15h-80q-75 0 -105 60q-12 25 -15 60v240q0 75 60 105q25 12 60 15h80zM240 120v240q0 37 -40 40q-37 0 -40 -40v-240q0 -37 40 -40q37 0 40 40z" />
<glyph unicode="P" d="M240 480q75 0 105 -60q12 -25 15 -60v-80q0 -75 -60 -105q-25 -13 -60 -15h-80v-160h-120v480h200zM240 280v80q0 37 -40 40h-40v-160h40q37 0 40 40z" />
<glyph unicode="Q" d="M240 480q75 0 105 -60q12 -25 15 -60v-240q0 -94 -93 -118l33 -82h-120l-32 81q-39 5 -66 25q-42 32 -42 94v240q0 75 60 105q25 13 60 15h80zM160 360v-240q0 -37 40 -40q37 0 40 40v240q0 37 -40 40q-37 0 -40 -40z" />
<glyph unicode="R" d="M360 320q0 -84 -79 -114l79 -126v-80h-120v80l-70 120h-10v-200h-120v480h200q75 0 105 -60q12 -25 15 -60v-40zM240 320v40q0 37 -40 40h-40v-120h40q37 0 40 40z" />
<glyph unicode="S" d="M360 120q-3 -35 -15 -60q-30 -60 -105 -60h-80q-35 2 -60 15q-60 30 -60 105v20h120v-20q3 -40 40 -40q40 3 40 40v40q0 37 -40 40h-40q-75 0 -105 60q-12 25 -15 60v40q0 75 60 105q25 12 60 15h80q75 0 105 -60q12 -25 15 -60v-20h-120v20q0 37 -40 40q-37 0 -40 -40 v-40q0 -37 40 -40h40q75 0 105 -60q12 -25 15 -60v-40z" />
<glyph unicode="T" d="M380 480v-80h-120v-400h-120v400h-120v80h360z" />
<glyph unicode="U" d="M240 480h120v-360q0 -75 -60 -105q-25 -13 -60 -15h-80q-75 0 -105 60q-12 25 -15 60v360h120v-360q0 -37 40 -40q37 0 40 40v360z" />
<glyph unicode="V" d="M360 400l-100 -400h-120l-100 400v80h120v-80l40 -320l40 320v80h120v-80z" />
<glyph unicode="W" d="M260 480h100v-80l-20 -320v-80h-100v40l-40 80l-40 -80v-40h-100v80l-20 320v80h100v-80l14 -227l46 107l46 -107l14 227v80z" />
<glyph unicode="X" d="M360 480v-80l-88 -160l88 -160v-80h-120v80l-40 120l-40 -120v-80h-120v80l87 160l-87 160v80h120v-80l40 -120l40 120v80h120z" />
<glyph unicode="Y" d="M240 480h120v-80l-100 -240v-160h-120v160l-100 240v80h120v-80l40 -160l40 160v80z" />
<glyph unicode="Z" d="M360 480v-80l-200 -320h200v-80h-320v80l200 320h-200v80h320z" />
<glyph unicode="[" d="M320 480v-80h-120v-400h120v-80h-240v560h240z" />
<glyph unicode="\" d="M120 400l240 -360v-80h-80v80l-240 360v80h80v-80z" />
<glyph unicode="]" d="M80 480h240v-560h-240v80h120v400h-120v80z" />
<glyph unicode="^" d="M60 120l100 160h80l100 -160h-80l-60 100l-60 -100h-80z" />
<glyph unicode="_" d="M0 80h400v-80h-400v80z" />
<glyph unicode="`" d="M120 560h80l40 -120h-80z" />
<glyph unicode="a" d="M240 400q75 0 105 -60q12 -25 15 -60v-280h-80l-40 60q-4 -60 -60 -60h-20q-75 0 -105 60q-12 25 -15 60q3 35 15 60q30 60 105 60h80v40q-3 40 -40 40h-140v80h180zM240 120v60h-40q-37 0 -40 -40v-20q0 -37 40 -40q37 0 40 40z" />
<glyph unicode="b" d="M240 400q75 0 105 -60q12 -25 15 -60v-160q-2 -35 -15 -60q-30 -60 -105 -60h-200v560h120v-220q0 56 60 60h20zM240 120v160q0 37 -40 40q-37 0 -40 -40v-200h40q37 0 40 40z" />
<glyph unicode="c" d="M360 280v-20h-120v20q0 37 -40 40q-37 0 -40 -40v-160q0 -37 40 -40q37 0 40 40v20h120v-20q0 -75 -60 -105q-25 -13 -60 -15h-80q-75 0 -105 60q-12 25 -15 60v160q0 75 60 105q25 12 60 15h80q75 0 105 -60q12 -25 15 -60z" />
<glyph unicode="d" d="M160 400h80v160h120v-560h-80l-40 60q0 -56 -60 -60h-20q-75 0 -105 60q-12 25 -15 60v160q3 35 15 60q30 60 105 60zM160 280v-160q0 -37 40 -40q37 0 40 40v200h-40q-37 0 -40 -40z" />
<glyph unicode="e" d="M360 180h-200v-60q0 -37 40 -40q37 0 40 40h120q0 -75 -60 -105q-25 -13 -60 -15h-80q-75 0 -105 60q-12 25 -15 60v160q0 75 60 105q25 12 60 15h80q75 0 105 -60q12 -25 15 -60v-100zM160 280v-40h80v40q-3 40 -40 40t-40 -40z" />
<glyph unicode="f" d="M280 480q-37 0 -40 -40v-40h100v-80h-100v-240h120v-80h-320v80h80v240h-60v80h60v40q0 75 60 105q25 12 60 15h120v-80h-80z" />
<glyph unicode="g" d="M240 -40v100q0 -56 -60 -60h-20q-75 0 -105 60q-12 25 -15 60v160q2 35 15 60q30 60 105 60h200v-440q0 -75 -60 -105q-25 -12 -60 -15h-180v80h140q37 0 40 40zM160 280v-160q0 -37 40 -40q37 0 40 40v200h-40q-37 0 -40 -40z" />
<glyph unicode="h" d="M240 400q75 0 105 -60q12 -25 15 -60v-280h-120v280q0 37 -40 40q-37 0 -40 -40v-280h-120v560h120v-220q0 56 60 60h20z" />
<glyph unicode="i" d="M250 560v-100h-100v100h100zM260 80h100v-80h-320v80h100v240h-80v80h200v-320z" />
<glyph unicode="j" d="M250 560v-100h-100v100h100zM40 400h320v-80h-100v-360q0 -75 -60 -105q-25 -12 -60 -15h-80v80h40q37 0 40 40v360h-100v80z" />
<glyph unicode="k" d="M294 248q66 -29 66 -108v-140h-120v140q0 37 -40 40h-40v-180h-120v560h120v-300h20l60 140h120z" />
<glyph unicode="l" d="M260 80h100v-80h-320v80h100v400h-80v80h200v-480z" />
<glyph unicode="m" d="M290 400q84 0 90 -100v-300h-90v300q0 19 -23 20q-22 -1 -22 -20v-300h-90v300q0 19 -23 20q-22 -1 -22 -20v-300h-90v400h45l45 -40q4 37 45 40q43 0 73 -37q15 37 62 37z" />
<glyph unicode="n" d="M240 400q75 0 105 -60q12 -25 15 -60v-280h-120v280q0 37 -40 40q-37 0 -40 -40v-280h-120v400h80l40 -60q0 56 60 60h20z" />
<glyph unicode="o" d="M240 400q75 0 105 -60q12 -25 15 -60v-160q0 -75 -60 -105q-25 -13 -60 -15h-80q-75 0 -105 60q-12 25 -15 60v160q0 75 60 105q25 12 60 15h80zM240 120v160q0 37 -40 40q-37 0 -40 -40v-160q0 -37 40 -40q37 0 40 40z" />
<glyph unicode="p" d="M240 0h-80v-160h-120v560h80l40 -60q0 56 60 60h20q75 0 105 -60q12 -25 15 -60v-160q-3 -35 -15 -60q-30 -60 -105 -60zM240 120v160q0 37 -40 40q-37 0 -40 -40v-200h40q37 0 40 40z" />
<glyph unicode="q" d="M160 0q-75 0 -105 60q-12 25 -15 60v160q2 35 15 60q30 60 105 60h200v-560h-120v220q0 -56 -60 -60h-20zM160 280v-160q0 -37 40 -40q37 0 40 40v200h-40q-37 0 -40 -40z" />
<glyph unicode="r" d="M240 400q75 0 105 -60q12 -25 15 -60v-80h-120v80q0 37 -40 40q-37 0 -40 -40v-280h-120v400h80l40 -60q0 56 60 60h20z" />
<glyph unicode="s" d="M240 240q75 0 105 -60q12 -25 15 -60q-3 -35 -15 -60q-30 -60 -105 -60h-180v80h140q40 3 40 40q-3 40 -40 40h-40q-75 0 -105 60q-12 25 -15 60q3 35 15 60q30 60 105 60h180v-80h-140q-40 -3 -40 -40q3 -40 40 -40h40z" />
<glyph unicode="t" d="M360 320h-140v-200q3 -40 40 -40h100v-80h-140q-35 3 -60 15q-60 30 -60 105v200h-60v80h60v80h120v-80h140v-80z" />
<glyph unicode="u" d="M160 0q-75 0 -105 60q-12 25 -15 60v280h120v-280q0 -37 40 -40q37 0 40 40v280h120v-400h-80l-40 60q0 -56 -60 -60h-20z" />
<glyph unicode="v" d="M360 320l-100 -320h-120l-100 320v80h120v-80l40 -240l40 240v80h120v-80z" />
<glyph unicode="w" d="M290 400h90v-300q0 -93 -113 -100q-62 0 -67 60q-5 -60 -68 -60q-112 7 -112 100v300h90v-300q0 -19 22 -20q23 1 23 20v300h90v-300q0 -19 22 -20q23 1 23 20v300z" />
<glyph unicode="x" d="M360 400v-80l-88 -120l88 -120v-80h-120v80l-40 80l-40 -80v-80h-120v80l87 120l-87 120v80h120v-80l40 -80l40 80v80h120z" />
<glyph unicode="y" d="M240 400h120v-80l-100 -320v-40q0 -75 -60 -105q-25 -12 -60 -15h-100v80h60q37 0 40 40v40l-100 320v80h120v-80l40 -240l40 240v80z" />
<glyph unicode="z" d="M360 400v-80l-200 -240h200v-80h-320v80l200 240h-200v80h320z" />
<glyph unicode="{" d="M100 240q37 0 40 40v80q0 75 60 105q25 12 60 15h60v-80h-20q-37 0 -40 -40v-60q0 -61 -49 -100q49 -39 49 -100v-60q3 -40 40 -40h20v-80h-60q-35 3 -60 15q-60 30 -60 105v80q-3 40 -40 40h-20v80h20z" />
<glyph unicode="|" d="M240 -80h-80v560h80v-560z" />
<glyph unicode="}" d="M300 240h20v-80h-20q-37 0 -40 -40v-80q0 -75 -60 -105q-25 -12 -60 -15h-60v80h20q37 0 40 40v60q0 61 49 100q-49 39 -49 100v60q-3 40 -40 40h-20v80h60q35 -3 60 -15q60 -30 60 -105v-80q3 -40 40 -40z" />
<glyph unicode="~" d="M43 190q0 30 21 53.5t56 23.5q29 0 97 -34q52 -26 63 -26h2q1 2 1 4l1 36h73v-37q0 -30 -21 -53.5t-56 -23.5q-29 0 -97 34q-52 26 -63 26h-2q-1 -2 -1 -4l-1 -36h-73v37z" />
<glyph unicode="&#xa0;" />
<glyph unicode="&#xa1;" d="M250 400v-100h-100v100h100zM260 -80h-120v80l20 240h80l20 -240v-80z" />
<glyph unicode="&#xa2;" d="M360 300h-120v20q0 37 -40 40q-37 0 -40 -40v-160q0 -37 40 -40q37 0 40 40v20h120v-20q0 -75 -60 -105q-25 -13 -60 -15h-20v-40h-40v40h-20q-75 0 -105 60q-12 25 -15 60v160q0 75 60 105q25 12 60 15h20v40h40v-40h20q75 0 105 -60q12 -25 15 -60v-20z" />
<glyph unicode="&#xa3;" d="M160 80h200v-80h-320v220h-40v40h40v100q0 75 60 105q25 13 60 15h80q75 0 105 -60q12 -25 15 -60v-20h-120v20q0 37 -40 40q-37 0 -40 -40v-100h80v-40h-80v-140z" />
<glyph unicode="&#xa4;" d="M360 340h-120v20q0 37 -40 40q-37 0 -40 -40v-60h60v-40h-60v-40h60v-40h-60v-60q0 -37 40 -40q37 0 40 40v20h120v-20q0 -75 -60 -105q-25 -13 -60 -15h-80q-75 0 -105 60q-12 25 -15 60v60h-40v40h40v40h-40v40h40v60q0 75 60 105q25 12 60 15h80q75 0 105 -60 q12 -25 15 -60v-20z" />
<glyph unicode="&#xa5;" d="M360 480v-80l-83 -200h63v-40h-80v-40h80v-40h-80v-80h-120v80h-80v40h80v40h-80v40h63l-83 200v80h120v-80l40 -160l40 160v80h120z" />
<glyph unicode="&#xa6;" d="M240 220h-80v260h80v-260zM240 -80h-80v260h80v-260z" />
<glyph unicode="&#xa7;" d="M360 340h-120v20q0 37 -40 40q-37 0 -40 -40q0 -37 40 -40h40q50 0 85 -35t35 -85q0 -44 -29 -78q29 -39 29 -82q0 -75 -60 -105q-25 -12 -60 -15h-80q-75 0 -105 60q-12 25 -15 60v20h120v-20q0 -37 40 -40q37 0 40 40q0 37 -40 40h-40q-50 0 -85 35t-35 85q0 44 29 78 q-29 39 -29 82q0 75 60 105q25 12 60 15h80q75 0 105 -60q12 -25 15 -60v-20zM200 240q-17 0 -28.5 -11.5t-11.5 -28.5t11.5 -28.5t28.5 -11.5t28.5 11.5t11.5 28.5t-11.5 28.5t-28.5 11.5z" />
<glyph unicode="&#xa8;" d="M80 460v100h100v-100h-100zM220 560h100v-100h-100v100z" />
<glyph unicode="&#xa9;" d="M200 480q75 0 127.5 -52.5t52.5 -127.5t-52.5 -127.5t-127.5 -52.5t-127.5 52.5t-52.5 127.5t52.5 127.5t127.5 52.5zM200 180q50 0 85 35t35 85t-35 85t-85 35t-85 -35t-35 -85t35 -85t85 -35zM270 320h-40v10q0 19 -20 20h-20q-19 0 -20 -20v-60q0 -19 20 -20h20 q19 0 20 20v10h40q0 -56 -60 -60h-20q-56 0 -60 60v40q0 56 60 60h20q56 0 60 -60z" />
<glyph unicode="&#xaa;" d="M220 480q56 0 60 -60v-140h-40l-20 30q-2 -30 -30 -30h-10q-56 0 -60 60q4 60 60 60h40v20q-1 20 -20 20h-70v40h90zM220 340v30h-20q-19 0 -20 -20v-10q0 -19 20 -20q19 0 20 20zM100 200v40h200v-40h-200z" />
<glyph unicode="&#xab;" d="M220 340l-100 -140l100 -140h-80l-100 140l100 140h80zM360 340l-100 -140l100 -140h-80l-100 140l100 140h80z" />
<glyph unicode="&#xac;" d="M40 240h320v-160h-80v80h-240v80z" />
<glyph unicode="&#xad;" d="M40 240h320v-80h-320v80z" />
<glyph unicode="&#xae;" d="M200 480q75 0 127.5 -52.5t52.5 -127.5t-52.5 -127.5t-127.5 -52.5t-127.5 52.5t-52.5 127.5t52.5 127.5t127.5 52.5zM200 180q50 0 85 35t35 85t-35 85t-85 35t-85 -35t-35 -85t35 -85t85 -35zM270 325q0 -20 -13 -35t-32 -19l45 -51h-46l-37 50h-17v-50h-40v160h85 q23 0 39 -16t16 -39zM230 320v10q0 19 -20 20h-40v-50h40q19 0 20 20z" />
<glyph unicode="&#xaf;" d="M0 480h400v-80h-400v80z" />
<glyph unicode="&#xb0;" d="M220 480q56 0 60 -60v-40q0 -56 -60 -60h-40q-56 0 -60 60v40q0 56 60 60h40zM220 380v40q0 19 -20 20q-19 0 -20 -20v-40q0 -19 20 -20q19 0 20 20z" />
<glyph unicode="&#xb1;" d="M320 280v-80h-80v-80h-80v80h-80v80h80v80h80v-80h80zM40 80h320v-80h-320v80z" />
<glyph unicode="&#xb2;" d="M120 280v50q4 60 60 60h20q20 1 20 20v10q-1 20 -20 20q-20 -1 -20 -20v-10h-60v10q4 60 60 60h40q60 -4 60 -60v-10q-4 -60 -60 -60h-20q-20 -1 -20 -20v-10h100v-40h-160z" />
<glyph unicode="&#xb3;" d="M230 380q50 -3 50 -40q-4 -60 -60 -60h-40q-60 4 -60 60v10h60v-10q1 -20 20 -20q20 1 20 20q-1 20 -20 20h-20v40h20q20 1 20 20q-1 20 -20 20q-20 -1 -20 -20v-10h-60v10q4 60 60 60h40q60 -4 60 -60q0 -37 -50 -40z" />
<glyph unicode="&#xb4;" d="M280 560l-40 -120h-80l40 120h80z" />
<glyph unicode="&#xb5;" d="M240 400h120v-400h-80l-40 60q0 -56 -60 -60h-20v-160h-120v560h120v-280q0 -37 40 -40q37 0 40 40v280z" />
<glyph unicode="&#xb6;" d="M240 -80h-80v241q-35 2 -60 14q-60 30 -60 105v80q2 35 15 60q30 60 105 60h80v-560zM360 -80h-80v560h80v-560z" />
<glyph unicode="&#xb7;" d="M260 250v-100h-100v100h100z" />
<glyph unicode="&#xb8;" d="M240 0v-40q-6 -80 -80 -80h-40v80h40v40h80z" />
<glyph unicode="&#xb9;" d="M230 320h40v-40h-140v40h40v110h-40v40l100 10v-160z" />
<glyph unicode="&#xba;" d="M220 480q56 0 60 -60v-80q0 -56 -60 -60h-40q-56 0 -60 60v80q0 56 60 60h40zM220 340v80q0 19 -20 20q-19 0 -20 -20v-80q0 -19 20 -20q19 0 20 20zM100 200v40h200v-40h-200z" />
<glyph unicode="&#xbb;" d="M180 340h80l100 -140l-100 -140h-80l100 140zM40 340h80l100 -140l-100 -140h-80l100 140z" />
<glyph unicode="&#xbc;" d="M73 84l-29 29l283 283l29 -29zM140 320h40v-40h-140v40h40v110h-40v40l100 10v-160zM360 70v-40h-20v-30h-60v30h-90v40l90 130h60v-130h20zM230 70h50v70z" />
<glyph unicode="&#xbd;" d="M73 84l-29 29l283 283l29 -29zM140 320h40v-40h-140v40h40v110h-40v40l100 10v-160zM200 0v50q4 60 60 60h20q20 1 20 20v10q-1 20 -20 20q-20 -1 -20 -20v-10h-60v10q4 60 60 60h40q60 -4 60 -60v-10q-4 -60 -60 -60h-20q-20 -1 -20 -20v-10h100v-40h-160z" />
<glyph unicode="&#xbe;" d="M73 84l-29 29l283 283l29 -29zM150 380q50 -3 50 -40q-4 -60 -60 -60h-40q-60 4 -60 60v10h60v-10q1 -20 20 -20q20 1 20 20q-1 20 -20 20h-20v40h20q20 1 20 20q-1 20 -20 20q-20 -1 -20 -20v-10h-60v10q4 60 60 60h40q60 -4 60 -60q0 -37 -50 -40zM360 70v-40h-20v-30 h-60v30h-90v40l90 130h60v-130h20zM230 70h50v70z" />
<glyph unicode="&#xbf;" d="M250 400v-100h-100v100h100zM160 -80q-35 3 -60 15q-60 30 -60 105v60q0 64 44 96q28 19 66 23v21h100v-100h-50q-40 -3 -40 -40v-60q3 -40 40 -40q40 3 40 40v20h120v-20q-3 -35 -15 -60q-30 -60 -105 -60h-80z" />
<glyph unicode="&#xc0;" d="M120 640h80l40 -120h-80zM260 480l100 -400v-80h-120v80l-8 60h-65l-7 -60v-80h-120v80l100 400h120zM177 220h45l-22 180z" />
<glyph unicode="&#xc1;" d="M280 640l-40 -120h-80l40 120h80zM260 480l100 -400v-80h-120v80l-8 60h-65l-7 -60v-80h-120v80l100 400h120zM177 220h45l-22 180z" />
<glyph unicode="&#xc2;" d="M80 520l80 120h80l80 -120h-80l-40 70l-40 -70h-80zM260 480l100 -400v-80h-120v80l-8 60h-65l-7 -60v-80h-120v80l100 400h120zM177 220h45l-22 180z" />
<glyph unicode="&#xc3;" d="M69 569q0 25 16 46q20 25 55 25q30 0 79 -36q31 -24 41 -24q8 0 9 9v31h62v-31q0 -26 -16 -47q-20 -25 -55 -25q-30 0 -79 36q-31 24 -41 24q-8 0 -9 -9v-31h-62v32zM260 480l100 -400v-80h-120v80l-8 60h-65l-7 -60v-80h-120v80l100 400h120zM177 220h45l-22 180z" />
<glyph unicode="&#xc4;" d="M80 540v100h100v-100h-100zM220 640h100v-100h-100v100zM260 480l100 -400v-80h-120v80l-8 60h-65l-7 -60v-80h-120v80l100 400h120zM177 220h45l-22 180z" />
<glyph unicode="&#xc5;" d="M200 640q25 0 42.5 -17.5t17.5 -42.5t-17.5 -42.5t-42.5 -17.5t-42.5 17.5t-17.5 42.5t17.5 42.5t42.5 17.5zM200 560q20 0 20 20t-20 20t-20 -20t20 -20zM260 480l100 -400v-80h-120v80l-8 60h-65l-7 -60v-80h-120v80l100 400h120zM177 220h45l-22 180z" />
<glyph unicode="&#xc6;" horiz-adv-x="800" d="M740 400h-160v-120h140v-80h-140v-120h160v-80h-280v480h280v-80zM260 480l100 -400v-80h-120v80l-8 60h-65l-7 -60v-80h-120v80l100 400h120zM177 220h45l-22 180z" />
<glyph unicode="&#xc7;" d="M360 360v-20h-120v20q0 37 -40 40q-37 0 -40 -40v-240q0 -37 40 -40q37 0 40 40v20h120v-20q0 -75 -60 -105q-25 -13 -60 -15h-80q-75 0 -105 60q-12 25 -15 60v240q0 75 60 105q25 12 60 15h80q75 0 105 -60q12 -25 15 -60zM240 0v-40q-6 -80 -80 -80h-40v80h40v40h80z " />
<glyph unicode="&#xc8;" d="M120 640h80l40 -120h-80zM340 400h-160v-120h140v-80h-140v-120h160v-80h-280v480h280v-80z" />
<glyph unicode="&#xc9;" d="M340 400h-160v-120h140v-80h-140v-120h160v-80h-280v480h280v-80zM280 640l-40 -120h-80l40 120h80z" />
<glyph unicode="&#xca;" d="M80 520l80 120h80l80 -120h-80l-40 70l-40 -70h-80zM340 400h-160v-120h140v-80h-140v-120h160v-80h-280v480h280v-80z" />
<glyph unicode="&#xcb;" d="M80 540v100h100v-100h-100zM220 640h100v-100h-100v100zM340 400h-160v-120h140v-80h-140v-120h160v-80h-280v480h280v-80z" />
<glyph unicode="&#xcc;" d="M120 640h80l40 -120h-80zM340 400h-80v-320h80v-80h-280v80h80v320h-80v80h280v-80z" />
<glyph unicode="&#xcd;" d="M280 640l-40 -120h-80l40 120h80zM340 400h-80v-320h80v-80h-280v80h80v320h-80v80h280v-80z" />
<glyph unicode="&#xce;" d="M80 520l80 120h80l80 -120h-80l-40 70l-40 -70h-80zM340 400h-80v-320h80v-80h-280v80h80v320h-80v80h280v-80z" />
<glyph unicode="&#xcf;" d="M80 540v100h100v-100h-100zM220 640h100v-100h-100v100zM340 400h-80v-320h80v-80h-280v80h80v320h-80v80h280v-80z" />
<glyph unicode="&#xd0;" d="M240 480q75 0 105 -60q13 -25 15 -60v-240q0 -75 -60 -105q-25 -13 -60 -15h-200v166l-17 -3l-7 39l24 5v273h200zM240 120v240q0 37 -40 40h-40v-172l53 9l7 -39l-60 -11v-107h40q37 0 40 40z" />
<glyph unicode="&#xd1;" d="M69 569q0 25 16 46q20 25 55 25q30 0 79 -36q31 -24 41 -24q8 0 9 9v31h62v-31q0 -26 -16 -47q-20 -25 -55 -25q-30 0 -79 36q-31 24 -41 24q-8 0 -9 -9v-31h-62v32zM240 480h120v-480h-120v80l-80 160v-240h-120v480h120v-80l80 -160v240z" />
<glyph unicode="&#xd2;" d="M120 640h80l40 -120h-80zM240 480q75 0 105 -60q12 -25 15 -60v-240q0 -75 -60 -105q-25 -13 -60 -15h-80q-75 0 -105 60q-12 25 -15 60v240q0 75 60 105q25 12 60 15h80zM240 120v240q0 37 -40 40q-37 0 -40 -40v-240q0 -37 40 -40q37 0 40 40z" />
<glyph unicode="&#xd3;" d="M280 640l-40 -120h-80l40 120h80zM240 480q75 0 105 -60q12 -25 15 -60v-240q0 -75 -60 -105q-25 -13 -60 -15h-80q-75 0 -105 60q-12 25 -15 60v240q0 75 60 105q25 12 60 15h80zM240 120v240q0 37 -40 40q-37 0 -40 -40v-240q0 -37 40 -40q37 0 40 40z" />
<glyph unicode="&#xd4;" d="M80 520l80 120h80l80 -120h-80l-40 70l-40 -70h-80zM240 480q75 0 105 -60q12 -25 15 -60v-240q0 -75 -60 -105q-25 -13 -60 -15h-80q-75 0 -105 60q-12 25 -15 60v240q0 75 60 105q25 12 60 15h80zM240 120v240q0 37 -40 40q-37 0 -40 -40v-240q0 -37 40 -40q37 0 40 40 z" />
<glyph unicode="&#xd5;" d="M69 569q0 25 16 46q20 25 55 25q30 0 79 -36q31 -24 41 -24q8 0 9 9v31h62v-31q0 -26 -16 -47q-20 -25 -55 -25q-30 0 -79 36q-31 24 -41 24q-8 0 -9 -9v-31h-62v32zM240 480q75 0 105 -60q12 -25 15 -60v-240q0 -75 -60 -105q-25 -13 -60 -15h-80q-75 0 -105 60 q-12 25 -15 60v240q0 75 60 105q25 12 60 15h80zM240 120v240q0 37 -40 40q-37 0 -40 -40v-240q0 -37 40 -40q37 0 40 40z" />
<glyph unicode="&#xd6;" d="M80 540v100h100v-100h-100zM220 640h100v-100h-100v100zM240 480q75 0 105 -60q12 -25 15 -60v-240q0 -75 -60 -105q-25 -13 -60 -15h-80q-75 0 -105 60q-12 25 -15 60v240q0 75 60 105q25 12 60 15h80zM240 120v240q0 37 -40 40q-37 0 -40 -40v-240q0 -37 40 -40 q37 0 40 40z" />
<glyph unicode="&#xd7;" d="M285 341l56 -56l-84 -85l84 -85l-56 -56l-85 84l-85 -84l-56 56l84 85l-84 85l56 56l85 -84z" />
<glyph unicode="&#xd8;" d="M303 464q57 -31 57 -104v-240q0 -75 -60 -105q-25 -13 -60 -15h-80q-10 0 -25 3l-12 -33l-38 14l12 32q-57 31 -57 104v240q0 75 60 105q25 12 60 15h80q10 0 25 -3l12 33l38 -14zM160 360v-171l72 196q-11 15 -32 15q-37 0 -40 -40zM200 80q37 0 40 40v171l-72 -196 q11 -15 32 -15z" />
<glyph unicode="&#xd9;" d="M120 640h80l40 -120h-80zM240 480h120v-360q0 -75 -60 -105q-25 -13 -60 -15h-80q-75 0 -105 60q-13 25 -15 60v360h120v-360q0 -37 40 -40q37 0 40 40v360z" />
<glyph unicode="&#xda;" d="M280 640l-40 -120h-80l40 120h80zM240 480h120v-360q0 -75 -60 -105q-25 -13 -60 -15h-80q-75 0 -105 60q-13 25 -15 60v360h120v-360q0 -37 40 -40q37 0 40 40v360z" />
<glyph unicode="&#xdb;" d="M80 520l80 120h80l80 -120h-80l-40 70l-40 -70h-80zM240 480h120v-360q0 -75 -60 -105q-25 -13 -60 -15h-80q-75 0 -105 60q-13 25 -15 60v360h120v-360q0 -37 40 -40q37 0 40 40v360z" />
<glyph unicode="&#xdc;" d="M80 540v100h100v-100h-100zM220 640h100v-100h-100v100zM240 480h120v-360q0 -75 -60 -105q-25 -13 -60 -15h-80q-75 0 -105 60q-13 25 -15 60v360h120v-360q0 -37 40 -40q37 0 40 40v360z" />
<glyph unicode="&#xdd;" d="M280 640l-40 -120h-80l40 120h80zM240 480h120v-80l-100 -240v-160h-120v160l-100 240v80h120v-80l40 -160l40 160v80z" />
<glyph unicode="&#xde;" d="M40 480h120v-80h80q75 0 105 -60q12 -25 15 -60v-80q0 -75 -60 -105q-25 -13 -60 -15h-80v-80h-120v480zM240 200v80q0 37 -40 40h-40v-160h40q37 0 40 40z" />
<glyph unicode="&#xdf;" d="M360 440v-80q0 -42 -27 -80q27 -30 27 -80v-80q0 -75 -60 -105q-25 -12 -60 -15h-40v80q37 0 40 40v80q-3 40 -40 40v80q37 0 40 40v80q-3 40 -40 40t-40 -40v-440h-120v440q0 75 60 105q25 12 60 15h80q75 0 105 -60q12 -25 15 -60z" />
<glyph unicode="&#xe0;" d="M240 400q75 0 105 -60q12 -25 15 -60v-280h-80l-40 60q-4 -60 -60 -60h-20q-75 0 -105 60q-12 25 -15 60q2 35 15 60q30 60 105 60h80v40q-3 40 -40 40h-140v80h180zM240 120v60h-40q-37 0 -40 -40v-20q0 -37 40 -40q37 0 40 40zM120 560h80l40 -120h-80z" />
<glyph unicode="&#xe1;" d="M240 400q75 0 105 -60q12 -25 15 -60v-280h-80l-40 60q-4 -60 -60 -60h-20q-75 0 -105 60q-12 25 -15 60q2 35 15 60q30 60 105 60h80v40q-3 40 -40 40h-140v80h180zM240 120v60h-40q-37 0 -40 -40v-20q0 -37 40 -40q37 0 40 40zM280 560l-40 -120h-80l40 120h80z" />
<glyph unicode="&#xe2;" d="M240 400q75 0 105 -60q12 -25 15 -60v-280h-80l-40 60q-4 -60 -60 -60h-20q-75 0 -105 60q-12 25 -15 60q2 35 15 60q30 60 105 60h80v40q-3 40 -40 40h-140v80h180zM240 120v60h-40q-37 0 -40 -40v-20q0 -37 40 -40q37 0 40 40zM80 440l80 120h80l80 -120h-80l-40 70 l-40 -70h-80z" />
<glyph unicode="&#xe3;" d="M240 400q75 0 105 -60q12 -25 15 -60v-280h-80l-40 60q-4 -60 -60 -60h-20q-75 0 -105 60q-12 25 -15 60q2 35 15 60q30 60 105 60h80v40q-3 40 -40 40h-140v80h180zM240 120v60h-40q-37 0 -40 -40v-20q0 -37 40 -40q37 0 40 40zM69 489q0 25 16 46q20 25 55 25 q30 0 79 -36q31 -24 41 -24q8 0 9 9v31h62v-31q0 -26 -16 -47q-20 -25 -55 -25q-30 0 -79 36q-31 24 -41 24q-8 0 -9 -9v-31h-62v32z" />
<glyph unicode="&#xe4;" d="M240 400q75 0 105 -60q12 -25 15 -60v-280h-80l-40 60q-4 -60 -60 -60h-20q-75 0 -105 60q-12 25 -15 60q2 35 15 60q30 60 105 60h80v40q-3 40 -40 40h-140v80h180zM240 120v60h-40q-37 0 -40 -40v-20q0 -37 40 -40q37 0 40 40zM80 460v100h100v-100h-100zM220 560h100 v-100h-100v100z" />
<glyph unicode="&#xe5;" d="M240 400q75 0 105 -60q12 -25 15 -60v-280h-80l-40 60q-4 -60 -60 -60h-20q-75 0 -105 60q-12 25 -15 60q2 35 15 60q30 60 105 60h80v40q-3 40 -40 40h-140v80h180zM240 120v60h-40q-37 0 -40 -40v-20q0 -37 40 -40q37 0 40 40zM200 560q25 0 42.5 -17.5t17.5 -42.5 t-17.5 -42.5t-42.5 -17.5t-42.5 17.5t-17.5 42.5t17.5 42.5t42.5 17.5zM200 480q20 0 20 20t-20 20t-20 -20t20 -20z" />
<glyph unicode="&#xe6;" horiz-adv-x="800" d="M760 180h-200v-60q0 -37 40 -40q37 0 40 40h120q0 -75 -60 -105q-25 -13 -60 -15h-80q-75 0 -105 60q-13 25 -15 60v160q0 75 60 105q25 12 60 15h80q75 0 105 -60q12 -25 15 -60v-100zM560 280v-40h80v40q-3 40 -40 40t-40 -40zM240 400q75 0 105 -60q12 -25 15 -60 v-280h-80l-40 60q-4 -60 -60 -60h-20q-75 0 -105 60q-12 25 -15 60q3 35 15 60q30 60 105 60h80v40q-3 40 -40 40h-140v80h180zM240 120v60h-40q-37 0 -40 -40v-20q0 -37 40 -40q37 0 40 40z" />
<glyph unicode="&#xe7;" d="M360 280v-20h-120v20q0 37 -40 40q-37 0 -40 -40v-160q0 -37 40 -40q37 0 40 40v20h120v-20q0 -75 -60 -105q-25 -13 -60 -15h-80q-75 0 -105 60q-13 25 -15 60v160q0 75 60 105q25 12 60 15h80q75 0 105 -60q12 -25 15 -60zM240 0v-40q-6 -80 -80 -80h-40v80h40v40h80z " />
<glyph unicode="&#xe8;" d="M360 180h-200v-60q0 -37 40 -40q37 0 40 40h120q0 -75 -60 -105q-25 -13 -60 -15h-80q-75 0 -105 60q-13 25 -15 60v160q0 75 60 105q25 12 60 15h80q75 0 105 -60q12 -25 15 -60v-100zM160 280v-40h80v40q-3 40 -40 40t-40 -40zM120 560h80l40 -120h-80z" />
<glyph unicode="&#xe9;" d="M360 180h-200v-60q0 -37 40 -40q37 0 40 40h120q0 -75 -60 -105q-25 -13 -60 -15h-80q-75 0 -105 60q-13 25 -15 60v160q0 75 60 105q25 12 60 15h80q75 0 105 -60q12 -25 15 -60v-100zM160 280v-40h80v40q-3 40 -40 40t-40 -40zM280 560l-40 -120h-80l40 120h80z" />
<glyph unicode="&#xea;" d="M360 180h-200v-60q0 -37 40 -40q37 0 40 40h120q0 -75 -60 -105q-25 -13 -60 -15h-80q-75 0 -105 60q-13 25 -15 60v160q0 75 60 105q25 12 60 15h80q75 0 105 -60q12 -25 15 -60v-100zM160 280v-40h80v40q-3 40 -40 40t-40 -40zM80 440l80 120h80l80 -120h-80l-40 70 l-40 -70h-80z" />
<glyph unicode="&#xeb;" d="M360 180h-200v-60q0 -37 40 -40q37 0 40 40h120q0 -75 -60 -105q-25 -13 -60 -15h-80q-75 0 -105 60q-13 25 -15 60v160q0 75 60 105q25 12 60 15h80q75 0 105 -60q12 -25 15 -60v-100zM160 280v-40h80v40q-3 40 -40 40t-40 -40zM80 460v100h100v-100h-100zM220 560h100 v-100h-100v100z" />
<glyph unicode="&#xec;" d="M260 80h100v-80h-320v80h100v240h-80v80h200v-320zM120 560h80l40 -120h-80z" />
<glyph unicode="&#xed;" d="M260 80h100v-80h-320v80h100v240h-80v80h200v-320zM280 560l-40 -120h-80l40 120h80z" />
<glyph unicode="&#xee;" d="M260 80h100v-80h-320v80h100v240h-80v80h200v-320zM80 440l80 120h80l80 -120h-80l-40 70l-40 -70h-80z" />
<glyph unicode="&#xef;" d="M260 80h100v-80h-320v80h100v240h-80v80h200v-320zM80 460v100h100v-100h-100zM220 560h100v-100h-100v100z" />
<glyph unicode="&#xf0;" d="M247 553q113 -32 113 -153v-280q0 -75 -60 -105q-25 -12 -60 -15h-80q-75 0 -105 60q-12 25 -15 60v120q0 75 60 105q25 12 60 15h80v40q0 41 -33 67l-31 -66l-36 17l29 62h-9h-60v80h100h6l19 39l36 -17zM240 120v160h-40q-37 0 -40 -40v-120q3 -40 40 -40t40 40z" />
<glyph unicode="&#xf1;" d="M240 400q75 0 105 -60q12 -25 15 -60v-280h-120v280q0 37 -40 40q-37 0 -40 -40v-280h-120v400h80l40 -60q0 56 60 60h20zM69 489q0 25 16 46q20 25 55 25q30 0 79 -36q31 -24 41 -24q8 0 9 9v31h62v-31q0 -26 -16 -47q-20 -25 -55 -25q-30 0 -79 36q-31 24 -41 24 q-8 0 -9 -9v-31h-62v32z" />
<glyph unicode="&#xf2;" d="M240 400q75 0 105 -60q12 -25 15 -60v-160q0 -75 -60 -105q-25 -13 -60 -15h-80q-75 0 -105 60q-13 25 -15 60v160q0 75 60 105q25 12 60 15h80zM240 120v160q0 37 -40 40q-37 0 -40 -40v-160q0 -37 40 -40q37 0 40 40zM120 560h80l40 -120h-80z" />
<glyph unicode="&#xf3;" d="M240 400q75 0 105 -60q12 -25 15 -60v-160q0 -75 -60 -105q-25 -13 -60 -15h-80q-75 0 -105 60q-13 25 -15 60v160q0 75 60 105q25 12 60 15h80zM240 120v160q0 37 -40 40q-37 0 -40 -40v-160q0 -37 40 -40q37 0 40 40zM280 560l-40 -120h-80l40 120h80z" />
<glyph unicode="&#xf4;" d="M240 400q75 0 105 -60q12 -25 15 -60v-160q0 -75 -60 -105q-25 -13 -60 -15h-80q-75 0 -105 60q-13 25 -15 60v160q0 75 60 105q25 12 60 15h80zM240 120v160q0 37 -40 40q-37 0 -40 -40v-160q0 -37 40 -40q37 0 40 40zM80 440l80 120h80l80 -120h-80l-40 70l-40 -70h-80 z" />
<glyph unicode="&#xf5;" d="M240 400q75 0 105 -60q12 -25 15 -60v-160q0 -75 -60 -105q-25 -13 -60 -15h-80q-75 0 -105 60q-13 25 -15 60v160q0 75 60 105q25 12 60 15h80zM240 120v160q0 37 -40 40q-37 0 -40 -40v-160q0 -37 40 -40q37 0 40 40zM69 489q0 25 16 46q20 25 55 25q30 0 79 -36 q31 -24 41 -24q8 0 9 9v31h62v-31q0 -26 -16 -47q-20 -25 -55 -25q-30 0 -79 36q-31 24 -41 24q-8 0 -9 -9v-31h-62v32z" />
<glyph unicode="&#xf6;" d="M240 400q75 0 105 -60q12 -25 15 -60v-160q0 -75 -60 -105q-25 -13 -60 -15h-80q-75 0 -105 60q-13 25 -15 60v160q0 75 60 105q25 12 60 15h80zM240 120v160q0 37 -40 40q-37 0 -40 -40v-160q0 -37 40 -40q37 0 40 40zM80 460v100h100v-100h-100zM220 560h100v-100h-100 v100z" />
<glyph unicode="&#xf7;" d="M40 240h320v-80h-320v80zM240 360v-80h-80v80h80zM160 40v80h80v-80h-80z" />
<glyph unicode="&#xf8;" d="M307 381q53 -31 53 -101v-160q0 -75 -60 -105q-25 -13 -60 -15h-80q-12 0 -29 4l-14 -30l-37 17l13 28q-53 31 -53 101v160q0 75 60 105q25 13 60 15h80q12 0 29 -4l14 30l37 -17zM160 280v-118l69 147q-11 11 -29 11q-37 0 -40 -40zM200 80q37 0 40 40v118l-69 -147 q11 -11 29 -11z" />
<glyph unicode="&#xf9;" d="M160 0q-75 0 -105 60q-12 25 -15 60v280h120v-280q0 -37 40 -40q37 0 40 40v280h120v-400h-80l-40 60q0 -56 -60 -60h-20zM120 560h80l40 -120h-80z" />
<glyph unicode="&#xfa;" d="M160 0q-75 0 -105 60q-12 25 -15 60v280h120v-280q0 -37 40 -40q37 0 40 40v280h120v-400h-80l-40 60q0 -56 -60 -60h-20zM280 560l-40 -120h-80l40 120h80z" />
<glyph unicode="&#xfb;" d="M160 0q-75 0 -105 60q-12 25 -15 60v280h120v-280q0 -37 40 -40q37 0 40 40v280h120v-400h-80l-40 60q0 -56 -60 -60h-20zM80 440l80 120h80l80 -120h-80l-40 70l-40 -70h-80z" />
<glyph unicode="&#xfc;" d="M160 0q-75 0 -105 60q-12 25 -15 60v280h120v-280q0 -37 40 -40q37 0 40 40v280h120v-400h-80l-40 60q0 -56 -60 -60h-20zM80 460v100h100v-100h-100zM220 560h100v-100h-100v100z" />
<glyph unicode="&#xfd;" d="M240 400h120v-80l-100 -320v-40q0 -75 -60 -105q-25 -12 -60 -15h-100v80h60q37 0 40 40v40l-100 320v80h120v-80l40 -240l40 240v80zM280 560l-40 -120h-80l40 120h80z" />
<glyph unicode="&#xfe;" d="M240 0h-80v-160h-120v720h120v-220q0 56 60 60h20q75 0 105 -60q12 -25 15 -60v-160q-3 -35 -15 -60q-30 -60 -105 -60zM240 120v160q0 37 -40 40q-37 0 -40 -40v-200h40q37 0 40 40z" />
<glyph unicode="&#xff;" d="M240 400h120v-80l-100 -320v-40q0 -75 -60 -105q-25 -12 -60 -15h-100v80h60q37 0 40 40v40l-100 320v80h120v-80l40 -240l40 240v80zM80 460v100h100v-100h-100zM220 560h100v-100h-100v100z" />
<glyph unicode="&#x152;" horiz-adv-x="800" d="M240 480q75 0 105 -60q13 -25 15 -60v-240q0 -75 -60 -105q-25 -13 -60 -15h-80q-75 0 -105 60q-12 25 -15 60v240q0 75 60 105q25 12 60 15h80zM240 120v240q0 37 -40 40q-37 0 -40 -40v-240q0 -37 40 -40q37 0 40 40zM740 400h-160v-120h140v-80h-140v-120h160v-80 h-280v480h280v-80z" />
<glyph unicode="&#x153;" horiz-adv-x="800" d="M760 180h-200v-60q0 -37 40 -40q37 0 40 40h120q0 -75 -60 -105q-25 -13 -60 -15h-80q-75 0 -105 60q-13 25 -15 60v160q0 75 60 105q25 12 60 15h80q75 0 105 -60q12 -25 15 -60v-100zM560 280v-40h80v40q-3 40 -40 40t-40 -40zM240 400q75 0 105 -60q12 -25 15 -60 v-160q0 -75 -60 -105q-25 -13 -60 -15h-80q-75 0 -105 60q-12 25 -15 60v160q0 75 60 105q25 12 60 15h80zM240 120v160q0 37 -40 40q-37 0 -40 -40v-160q0 -37 40 -40q37 0 40 40z" />
<glyph unicode="&#x178;" d="M80 540v100h100v-100h-100zM220 640h100v-100h-100v100zM240 480h120v-80l-100 -240v-160h-120v160l-100 240v80h120v-80l40 -160l40 160v80z" />
<glyph unicode="&#x2c6;" d="M80 440l80 120h80l80 -120h-80l-40 70l-40 -70h-80z" />
<glyph unicode="&#x2dc;" d="M69 489q0 25 16 46q20 25 55 25q30 0 79 -36q31 -24 41 -24q8 0 9 9v31h62v-31q0 -26 -16 -47q-20 -25 -55 -25q-30 0 -79 36q-31 24 -41 24q-8 0 -9 -9v-31h-62v32z" />
<glyph unicode="&#x2000;" horiz-adv-x="320" />
<glyph unicode="&#x2001;" horiz-adv-x="640" />
<glyph unicode="&#x2002;" horiz-adv-x="320" />
<glyph unicode="&#x2003;" horiz-adv-x="640" />
<glyph unicode="&#x2004;" horiz-adv-x="213" />
<glyph unicode="&#x2005;" horiz-adv-x="160" />
<glyph unicode="&#x2006;" horiz-adv-x="106" />
<glyph unicode="&#x2007;" horiz-adv-x="106" />
<glyph unicode="&#x2008;" horiz-adv-x="80" />
<glyph unicode="&#x2009;" horiz-adv-x="128" />
<glyph unicode="&#x200a;" horiz-adv-x="35" />
<glyph unicode="&#x2010;" d="M40 240h320v-80h-320v80z" />
<glyph unicode="&#x2011;" d="M40 240h320v-80h-320v80z" />
<glyph unicode="&#x2012;" d="M40 240h320v-80h-320v80z" />
<glyph unicode="&#x2013;" d="M80 240h240v-80h-240v80z" />
<glyph unicode="&#x2014;" d="M0 240h400v-80h-400v80z" />
<glyph unicode="&#x2018;" d="M250 300h-100l80 180h20v-180z" />
<glyph unicode="&#x2019;" d="M150 480h100l-80 -180h-20v180z" />
<glyph unicode="&#x201a;" d="M150 100h100l-80 -180h-20v180z" />
<glyph unicode="&#x201c;" d="M320 300h-100l80 180h20v-180zM180 300h-100l80 180h20v-180z" />
<glyph unicode="&#x201d;" d="M80 480h100l-80 -180h-20v180zM220 480h100l-80 -180h-20v180z" />
<glyph unicode="&#x201e;" d="M80 100h100l-80 -180h-20v180zM220 100h100l-80 -180h-20v180z" />
<glyph unicode="&#x2022;" d="M280 200q0 -29 -20.5 -49.5t-49.5 -20.5t-49.5 20.5t-20.5 49.5t20.5 49.5t49.5 20.5t49.5 -20.5t20.5 -49.5z" />
<glyph unicode="&#x2026;" d="M120 100v-100h-100v100h100zM250 100v-100h-100v100h100zM380 100v-100h-100v100h100z" />
<glyph unicode="&#x202f;" horiz-adv-x="128" />
<glyph unicode="&#x2039;" d="M290 340l-100 -140l100 -140h-80l-100 140l100 140h80z" />
<glyph unicode="&#x203a;" d="M110 340h80l100 -140l-100 -140h-80l100 140z" />
<glyph unicode="&#x205f;" horiz-adv-x="160" />
<glyph unicode="&#x2122;" d="M306 479h74v-220h-62v146l-37 -137l-38 137v-146h-62v220h75l25 -87zM169 479v-49h-37v-171h-75v171h-37v49h149z" />
<glyph unicode="&#x25fc;" d="M0 400h400v-400h-400v400z" />
</font>
</defs>
</svg>
